<?xml version="1.0" encoding="UTF-8" standalone="no"?>
<!DOCTYPE svg PUBLIC "-//W3C//DTD SVG 1.1//EN"
 "http://www.w3.org/Graphics/SVG/1.1/DTD/svg11.dtd">
<!-- Generated by graphviz version 2.43.0 (0)
 -->
<!-- Title: qudis Pages: 1 -->
<svg width="388pt" height="260pt"
 viewBox="0.00 0.00 388.34 260.00" xmlns="http://www.w3.org/2000/svg" xmlns:xlink="http://www.w3.org/1999/xlink">
<g id="graph0" class="graph" transform="scale(1 1) rotate(0) translate(4 256)">
<title>qudis</title>
<polygon fill="white" stroke="transparent" points="-4,4 -4,-256 384.34,-256 384.34,4 -4,4"/>
<!-- ... -->
<g id="node1" class="node">
<title>...</title>
<ellipse fill="none" stroke="black" cx="76.25" cy="-234" rx="27" ry="18"/>
<text text-anchor="middle" x="76.25" y="-230.3" font-family="Times,serif" font-size="14.00">...</text>
</g>
<!-- 枣糕模型 -->
<g id="node2" class="node">
<title>枣糕模型</title>
<ellipse fill="none" stroke="black" cx="114.25" cy="-162" rx="48.19" ry="18"/>
<text text-anchor="middle" x="114.25" y="-158.3" font-family="Times,serif" font-size="14.00">枣糕模型</text>
</g>
<!-- ...&#45;&gt;枣糕模型 -->
<g id="edge1" class="edge">
<title>...&#45;&gt;枣糕模型</title>
<path fill="none" stroke="black" d="M85.06,-216.76C89.53,-208.53 95.08,-198.32 100.12,-189.02"/>
<polygon fill="black" stroke="black" points="103.26,-190.58 104.95,-180.12 97.1,-187.24 103.26,-190.58"/>
</g>
<!-- 行星原子模型 -->
<g id="node3" class="node">
<title>行星原子模型</title>
<ellipse fill="none" stroke="black" cx="123.25" cy="-90" rx="66.09" ry="18"/>
<text text-anchor="middle" x="123.25" y="-86.3" font-family="Times,serif" font-size="14.00">行星原子模型</text>
</g>
<!-- 枣糕模型&#45;&gt;行星原子模型 -->
<g id="edge2" class="edge">
<title>枣糕模型&#45;&gt;行星原子模型</title>
<path fill="none" stroke="black" d="M116.47,-143.7C117.46,-135.98 118.66,-126.71 119.76,-118.11"/>
<polygon fill="black" stroke="black" points="123.24,-118.47 121.05,-108.1 116.3,-117.58 123.24,-118.47"/>
</g>
<!-- 波尔原子模型 -->
<g id="node4" class="node">
<title>波尔原子模型</title>
<ellipse fill="none" stroke="black" cx="143.25" cy="-18" rx="66.09" ry="18"/>
<text text-anchor="middle" x="143.25" y="-14.3" font-family="Times,serif" font-size="14.00">波尔原子模型</text>
</g>
<!-- 行星原子模型&#45;&gt;波尔原子模型 -->
<g id="edge3" class="edge">
<title>行星原子模型&#45;&gt;波尔原子模型</title>
<path fill="none" stroke="black" d="M128.19,-71.7C130.42,-63.9 133.1,-54.51 135.58,-45.83"/>
<polygon fill="black" stroke="black" points="138.98,-46.68 138.36,-36.1 132.25,-44.76 138.98,-46.68"/>
</g>
<!-- 质疑 -->
<g id="node5" class="node">
<title>质疑</title>
<ellipse fill="none" stroke="black" cx="29.25" cy="-18" rx="29.5" ry="18"/>
<text text-anchor="middle" x="29.25" y="-14.3" font-family="Times,serif" font-size="14.00">质疑</text>
</g>
<!-- 行星原子模型&#45;&gt;质疑 -->
<g id="edge4" class="edge">
<title>行星原子模型&#45;&gt;质疑</title>
<path fill="none" stroke="black" d="M101.45,-72.76C87.66,-62.5 69.78,-49.18 55.25,-38.37"/>
<polygon fill="black" stroke="black" points="57.26,-35.5 47.15,-32.33 53.08,-41.11 57.26,-35.5"/>
</g>
<!-- 质疑&#45;&gt;... -->
<g id="edge5" class="edge">
<title>质疑&#45;&gt;...</title>
<path fill="none" stroke="black" d="M31.24,-36.13C34.91,-65.78 43.63,-128.43 57.25,-180 59.62,-188.97 62.84,-198.57 65.96,-207.1"/>
<polygon fill="black" stroke="black" points="62.71,-208.4 69.51,-216.52 69.26,-205.93 62.71,-208.4"/>
</g>
<!-- 卢瑟福 -->
<g id="node6" class="node">
<title>卢瑟福</title>
<ellipse fill="none" stroke="black" cx="237.25" cy="-162" rx="38.19" ry="18"/>
<text text-anchor="middle" x="237.25" y="-158.3" font-family="Times,serif" font-size="14.00">卢瑟福</text>
</g>
<!-- 卢瑟福&#45;&gt;行星原子模型 -->
<g id="edge6" class="edge">
<title>卢瑟福&#45;&gt;行星原子模型</title>
<path fill="none" stroke="black" d="M215,-147.34C198.74,-137.35 176.38,-123.62 157.8,-112.22"/>
<polygon fill="black" stroke="black" points="159.38,-109.08 149.03,-106.83 155.72,-115.05 159.38,-109.08"/>
</g>
<!-- 电子 -->
<g id="node7" class="node">
<title>电子</title>
<ellipse fill="none" stroke="black" cx="237.25" cy="-90" rx="29.5" ry="18"/>
<text text-anchor="middle" x="237.25" y="-86.3" font-family="Times,serif" font-size="14.00">电子</text>
</g>
<!-- 卢瑟福&#45;&gt;电子 -->
<g id="edge7" class="edge">
<title>卢瑟福&#45;&gt;电子</title>
<path fill="none" stroke="black" d="M237.25,-143.7C237.25,-135.98 237.25,-126.71 237.25,-118.11"/>
<polygon fill="black" stroke="black" points="240.75,-118.1 237.25,-108.1 233.75,-118.1 240.75,-118.1"/>
</g>
<!-- 生平经历 -->
<g id="node8" class="node">
<title>生平经历</title>
<ellipse fill="none" stroke="black" cx="332.25" cy="-90" rx="48.19" ry="18"/>
<text text-anchor="middle" x="332.25" y="-86.3" font-family="Times,serif" font-size="14.00">生平经历</text>
</g>
<!-- 卢瑟福&#45;&gt;生平经历 -->
<g id="edge8" class="edge">
<title>卢瑟福&#45;&gt;生平经历</title>
<path fill="none" stroke="black" d="M256.93,-146.5C270.2,-136.72 287.93,-123.65 302.86,-112.65"/>
<polygon fill="black" stroke="black" points="305.3,-115.21 311.27,-106.46 301.14,-109.57 305.3,-115.21"/>
</g>
<!-- 库伦散射 -->
<g id="node9" class="node">
<title>库伦散射</title>
<ellipse fill="none" stroke="black" cx="169.25" cy="-234" rx="48.19" ry="18"/>
<text text-anchor="middle" x="169.25" y="-230.3" font-family="Times,serif" font-size="14.00">库伦散射</text>
</g>
</g>
</svg>
