<?xml version="1.0" encoding="UTF-8" standalone="no"?>
<!DOCTYPE svg PUBLIC "-//W3C//DTD SVG 1.1//EN"
 "http://www.w3.org/Graphics/SVG/1.1/DTD/svg11.dtd">
<!-- Generated by graphviz version 2.43.0 (0)
 -->
<!-- Title: development Pages: 1 -->
<svg width="1551pt" height="332pt"
 viewBox="0.00 0.00 1550.78 332.00" xmlns="http://www.w3.org/2000/svg" xmlns:xlink="http://www.w3.org/1999/xlink">
<g id="graph0" class="graph" transform="scale(1 1) rotate(0) translate(4 328)">
<title>development</title>
<polygon fill="white" stroke="transparent" points="-4,4 -4,-328 1546.78,-328 1546.78,4 -4,4"/>
<!-- 知乎－田淮安 -->
<g id="node1" class="node">
<title>知乎－田淮安</title>
<ellipse fill="lightgrey" stroke="lightgrey" cx="482.34" cy="-234" rx="66.09" ry="18"/>
<text text-anchor="middle" x="482.34" y="-230.3" font-family="Times,serif" font-size="14.00">知乎－田淮安</text>
</g>
<!-- 推荐模拟领域的教科书 -->
<g id="node2" class="node">
<title>推荐模拟领域的教科书</title>
<g id="a_node2"><a xlink:href="https://www.zhihu.com/question/634884133/answer/3336011132" xlink:title="推荐模拟领域的教科书">
<ellipse fill="lightgrey" stroke="lightgrey" cx="103.34" cy="-162" rx="103.18" ry="18"/>
<text text-anchor="middle" x="103.34" y="-158.3" font-family="Times,serif" font-size="14.00">推荐模拟领域的教科书</text>
</a>
</g>
</g>
<!-- 知乎－田淮安&#45;&gt;推荐模拟领域的教科书 -->
<g id="edge1" class="edge">
<title>知乎－田淮安&#45;&gt;推荐模拟领域的教科书</title>
<path fill="none" stroke="black" d="M429.24,-223.19C364.84,-211.3 255.72,-191.14 181.66,-177.47"/>
<polygon fill="black" stroke="black" points="181.92,-173.95 171.45,-175.58 180.65,-180.84 181.92,-173.95"/>
</g>
<!-- 不听大牛言，弯路在眼前 -->
<g id="node3" class="node">
<title>不听大牛言，弯路在眼前</title>
<g id="a_node3"><a xlink:href="https://zhuanlan.zhihu.com/p/524664651" xlink:title="不听大牛言，弯路在眼前">
<ellipse fill="lightgrey" stroke="lightgrey" cx="337.34" cy="-162" rx="112.38" ry="18"/>
<text text-anchor="middle" x="337.34" y="-158.3" font-family="Times,serif" font-size="14.00">不听大牛言，弯路在眼前</text>
</a>
</g>
</g>
<!-- 知乎－田淮安&#45;&gt;不听大牛言，弯路在眼前 -->
<g id="edge2" class="edge">
<title>知乎－田淮安&#45;&gt;不听大牛言，弯路在眼前</title>
<path fill="none" stroke="black" d="M451.23,-217.98C430.46,-207.96 402.88,-194.64 380.05,-183.62"/>
<polygon fill="black" stroke="black" points="381.45,-180.41 370.92,-179.21 378.41,-186.71 381.45,-180.41"/>
</g>
<!-- 导师开组会对自己的科研有帮助吗？ -->
<g id="node4" class="node">
<title>导师开组会对自己的科研有帮助吗？</title>
<g id="a_node4"><a xlink:href="https://www.zhihu.com/question/418990852/answer/2097940017" xlink:title="导师开组会对自己的科研有帮助吗？">
<ellipse fill="lightgrey" stroke="lightgrey" cx="627.34" cy="-162" rx="159.47" ry="18"/>
<text text-anchor="middle" x="627.34" y="-158.3" font-family="Times,serif" font-size="14.00">导师开组会对自己的科研有帮助吗？</text>
</a>
</g>
</g>
<!-- 知乎－田淮安&#45;&gt;导师开组会对自己的科研有帮助吗？ -->
<g id="edge3" class="edge">
<title>知乎－田淮安&#45;&gt;导师开组会对自己的科研有帮助吗？</title>
<path fill="none" stroke="black" d="M513.45,-217.98C534,-208.06 561.22,-194.92 583.9,-183.97"/>
<polygon fill="black" stroke="black" points="585.5,-187.08 592.99,-179.58 582.46,-180.78 585.5,-187.08"/>
</g>
<!-- 量子科普 -->
<g id="node5" class="node">
<title>量子科普</title>
<g id="a_node5"><a xlink:href="https://www.zhihu.com/question/474932921/answer/2049518065" xlink:title="量子科普">
<ellipse fill="lightgrey" stroke="lightgrey" cx="852.34" cy="-162" rx="48.19" ry="18"/>
<text text-anchor="middle" x="852.34" y="-158.3" font-family="Times,serif" font-size="14.00">量子科普</text>
</a>
</g>
</g>
<!-- 知乎－田淮安&#45;&gt;量子科普 -->
<g id="edge4" class="edge">
<title>知乎－田淮安&#45;&gt;量子科普</title>
<path fill="none" stroke="black" d="M540.45,-225.33C603.61,-216.49 707.31,-200.5 795.34,-180 799.19,-179.1 803.16,-178.09 807.14,-177.03"/>
<polygon fill="black" stroke="black" points="808.26,-180.35 816.94,-174.29 806.37,-173.61 808.26,-180.35"/>
</g>
<!-- 姚鸿泽 -->
<g id="node9" class="node">
<title>姚鸿泽</title>
<ellipse fill="lightgrey" stroke="lightgrey" cx="337.34" cy="-90" rx="38.19" ry="18"/>
<text text-anchor="middle" x="337.34" y="-86.3" font-family="Times,serif" font-size="14.00">姚鸿泽</text>
</g>
<!-- 不听大牛言，弯路在眼前&#45;&gt;姚鸿泽 -->
<g id="edge7" class="edge">
<title>不听大牛言，弯路在眼前&#45;&gt;姚鸿泽</title>
<path fill="none" stroke="black" d="M337.34,-143.7C337.34,-135.98 337.34,-126.71 337.34,-118.11"/>
<polygon fill="black" stroke="black" points="340.84,-118.1 337.34,-108.1 333.84,-118.1 340.84,-118.1"/>
</g>
<!-- 知乎 -->
<g id="node6" class="node">
<title>知乎</title>
<ellipse fill="lightgrey" stroke="lightgrey" cx="1073.34" cy="-306" rx="29.5" ry="18"/>
<text text-anchor="middle" x="1073.34" y="-302.3" font-family="Times,serif" font-size="14.00">知乎</text>
</g>
<!-- 老派学者的凋零 -->
<g id="node7" class="node">
<title>老派学者的凋零</title>
<g id="a_node7"><a xlink:href="https://zhuanlan.zhihu.com/p/717952816" xlink:title="老派学者的凋零">
<ellipse fill="lightgrey" stroke="lightgrey" cx="997.34" cy="-234" rx="75.29" ry="18"/>
<text text-anchor="middle" x="997.34" y="-230.3" font-family="Times,serif" font-size="14.00">老派学者的凋零</text>
</a>
</g>
</g>
<!-- 知乎&#45;&gt;老派学者的凋零 -->
<g id="edge5" class="edge">
<title>知乎&#45;&gt;老派学者的凋零</title>
<path fill="none" stroke="black" d="M1057.59,-290.5C1047.63,-281.32 1034.52,-269.24 1023.07,-258.7"/>
<polygon fill="black" stroke="black" points="1025.2,-255.9 1015.47,-251.7 1020.46,-261.05 1025.2,-255.9"/>
</g>
<!-- 半数 o 阿白 -->
<g id="node8" class="node">
<title>半数 o 阿白</title>
<ellipse fill="lightgrey" stroke="lightgrey" cx="1150.34" cy="-234" rx="59.29" ry="18"/>
<text text-anchor="middle" x="1150.34" y="-230.3" font-family="Times,serif" font-size="14.00">半数 o 阿白</text>
</g>
<!-- 知乎&#45;&gt;半数 o 阿白 -->
<g id="edge6" class="edge">
<title>知乎&#45;&gt;半数 o 阿白</title>
<path fill="none" stroke="black" d="M1089.3,-290.5C1099.63,-281.1 1113.31,-268.66 1125.1,-257.94"/>
<polygon fill="black" stroke="black" points="1127.48,-260.51 1132.52,-251.2 1122.77,-255.34 1127.48,-260.51"/>
</g>
<!-- John Watrous 博客 -->
<g id="node11" class="node">
<title>John Watrous 博客</title>
<ellipse fill="lightgrey" stroke="lightgrey" cx="997.34" cy="-162" rx="79.09" ry="18"/>
<text text-anchor="middle" x="997.34" y="-158.3" font-family="Times,serif" font-size="14.00">John Watrous 博客</text>
</g>
<!-- 老派学者的凋零&#45;&gt;John Watrous 博客 -->
<g id="edge9" class="edge">
<title>老派学者的凋零&#45;&gt;John Watrous 博客</title>
<path fill="none" stroke="black" d="M997.34,-215.7C997.34,-207.98 997.34,-198.71 997.34,-190.11"/>
<polygon fill="black" stroke="black" points="1000.84,-190.1 997.34,-180.1 993.84,-190.1 1000.84,-190.1"/>
</g>
<!-- 访谈整理 -->
<g id="node10" class="node">
<title>访谈整理</title>
<g id="a_node10"><a xlink:href="https://zhuanlan.zhihu.com/p/718035068" xlink:title="访谈整理">
<ellipse fill="lightgrey" stroke="lightgrey" cx="337.34" cy="-18" rx="48.19" ry="18"/>
<text text-anchor="middle" x="337.34" y="-14.3" font-family="Times,serif" font-size="14.00">访谈整理</text>
</a>
</g>
</g>
<!-- 姚鸿泽&#45;&gt;访谈整理 -->
<g id="edge8" class="edge">
<title>姚鸿泽&#45;&gt;访谈整理</title>
<path fill="none" stroke="black" d="M337.34,-71.7C337.34,-63.98 337.34,-54.71 337.34,-46.11"/>
<polygon fill="black" stroke="black" points="340.84,-46.1 337.34,-36.1 333.84,-46.1 340.84,-46.1"/>
</g>
<!-- 计算模拟教科书 -->
<g id="node12" class="node">
<title>计算模拟教科书</title>
<ellipse fill="none" stroke="black" cx="482.34" cy="-306" rx="75.29" ry="18"/>
<text text-anchor="middle" x="482.34" y="-302.3" font-family="Times,serif" font-size="14.00">计算模拟教科书</text>
</g>
<!-- 计算模拟教科书&#45;&gt;知乎－田淮安 -->
<g id="edge10" class="edge">
<title>计算模拟教科书&#45;&gt;知乎－田淮安</title>
<path fill="none" stroke="black" d="M482.34,-287.7C482.34,-279.98 482.34,-270.71 482.34,-262.11"/>
<polygon fill="black" stroke="black" points="485.84,-262.1 482.34,-252.1 478.84,-262.1 485.84,-262.1"/>
</g>
<!-- 原子物理 -->
<g id="node13" class="node">
<title>原子物理</title>
<ellipse fill="none" stroke="black" cx="1303.34" cy="-306" rx="48.19" ry="18"/>
<text text-anchor="middle" x="1303.34" y="-302.3" font-family="Times,serif" font-size="14.00">原子物理</text>
</g>
<!-- 知乎杨福家书评 -->
<g id="node14" class="node">
<title>知乎杨福家书评</title>
<ellipse fill="none" stroke="black" cx="1303.34" cy="-234" rx="75.29" ry="18"/>
<text text-anchor="middle" x="1303.34" y="-230.3" font-family="Times,serif" font-size="14.00">知乎杨福家书评</text>
</g>
<!-- 原子物理&#45;&gt;知乎杨福家书评 -->
<g id="edge11" class="edge">
<title>原子物理&#45;&gt;知乎杨福家书评</title>
<path fill="none" stroke="black" d="M1303.34,-287.7C1303.34,-279.98 1303.34,-270.71 1303.34,-262.11"/>
<polygon fill="black" stroke="black" points="1306.84,-262.1 1303.34,-252.1 1299.84,-262.1 1306.84,-262.1"/>
</g>
<!-- 恒星的故事； -->
<g id="node15" class="node">
<title>恒星的故事；</title>
<ellipse fill="none" stroke="black" cx="1303.34" cy="-162" rx="66.09" ry="18"/>
<text text-anchor="middle" x="1303.34" y="-158.3" font-family="Times,serif" font-size="14.00">恒星的故事；</text>
</g>
<!-- 知乎杨福家书评&#45;&gt;恒星的故事； -->
<g id="edge12" class="edge">
<title>知乎杨福家书评&#45;&gt;恒星的故事；</title>
<path fill="none" stroke="black" d="M1303.34,-215.7C1303.34,-207.98 1303.34,-198.71 1303.34,-190.11"/>
<polygon fill="black" stroke="black" points="1306.84,-190.1 1303.34,-180.1 1299.84,-190.1 1306.84,-190.1"/>
</g>
<!-- 懒猫的 emacs 配置 -->
<g id="node16" class="node">
<title>懒猫的 emacs 配置</title>
<ellipse fill="none" stroke="black" cx="1456.34" cy="-306" rx="86.38" ry="18"/>
<text text-anchor="middle" x="1456.34" y="-302.3" font-family="Times,serif" font-size="14.00">懒猫的 emacs 配置</text>
</g>
<!-- 撤销的 el -->
<g id="node17" class="node">
<title>撤销的 el</title>
<ellipse fill="none" stroke="black" cx="1456.34" cy="-234" rx="49.29" ry="18"/>
<text text-anchor="middle" x="1456.34" y="-230.3" font-family="Times,serif" font-size="14.00">撤销的 el</text>
</g>
<!-- 懒猫的 emacs 配置&#45;&gt;撤销的 el -->
<g id="edge13" class="edge">
<title>懒猫的 emacs 配置&#45;&gt;撤销的 el</title>
<path fill="none" stroke="black" d="M1456.34,-287.7C1456.34,-279.98 1456.34,-270.71 1456.34,-262.11"/>
<polygon fill="black" stroke="black" points="1459.84,-262.1 1456.34,-252.1 1452.84,-262.1 1459.84,-262.1"/>
</g>
<!-- 博客介绍原理 -->
<g id="node18" class="node">
<title>博客介绍原理</title>
<g id="a_node18"><a xlink:href="https://archive.casouri.cc/note/2021/visual-undo-tree/" xlink:title="博客介绍原理">
<ellipse fill="none" stroke="black" cx="1456.34" cy="-162" rx="66.09" ry="18"/>
<text text-anchor="middle" x="1456.34" y="-158.3" font-family="Times,serif" font-size="14.00">博客介绍原理</text>
</a>
</g>
</g>
<!-- 撤销的 el&#45;&gt;博客介绍原理 -->
<g id="edge14" class="edge">
<title>撤销的 el&#45;&gt;博客介绍原理</title>
<path fill="none" stroke="black" d="M1456.34,-215.7C1456.34,-207.98 1456.34,-198.71 1456.34,-190.11"/>
<polygon fill="black" stroke="black" points="1459.84,-190.1 1456.34,-180.1 1452.84,-190.1 1459.84,-190.1"/>
</g>
<!-- Your next Stop -->
<g id="node19" class="node">
<title>Your next Stop</title>
<ellipse fill="none" stroke="black" cx="1456.34" cy="-90" rx="64.19" ry="18"/>
<text text-anchor="middle" x="1456.34" y="-86.3" font-family="Times,serif" font-size="14.00">Your next Stop</text>
</g>
<!-- 博客介绍原理&#45;&gt;Your next Stop -->
<g id="edge15" class="edge">
<title>博客介绍原理&#45;&gt;Your next Stop</title>
<path fill="none" stroke="black" d="M1456.34,-143.7C1456.34,-135.98 1456.34,-126.71 1456.34,-118.11"/>
<polygon fill="black" stroke="black" points="1459.84,-118.1 1456.34,-108.1 1452.84,-118.1 1459.84,-118.1"/>
</g>
<!-- 自己简介修改 -->
<g id="node20" class="node">
<title>自己简介修改</title>
<ellipse fill="none" stroke="black" cx="1456.34" cy="-18" rx="66.09" ry="18"/>
<text text-anchor="middle" x="1456.34" y="-14.3" font-family="Times,serif" font-size="14.00">自己简介修改</text>
</g>
<!-- Your next Stop&#45;&gt;自己简介修改 -->
<g id="edge16" class="edge">
<title>Your next Stop&#45;&gt;自己简介修改</title>
<path fill="none" stroke="black" d="M1456.34,-71.7C1456.34,-63.98 1456.34,-54.71 1456.34,-46.11"/>
<polygon fill="black" stroke="black" points="1459.84,-46.1 1456.34,-36.1 1452.84,-46.1 1459.84,-46.1"/>
</g>
</g>
</svg>
