<?xml version="1.0" encoding="UTF-8" standalone="no"?>
<!DOCTYPE svg PUBLIC "-//W3C//DTD SVG 1.1//EN"
 "http://www.w3.org/Graphics/SVG/1.1/DTD/svg11.dtd">
<!-- Generated by graphviz version 2.43.0 (0)
 -->
<!-- Title: lan Pages: 1 -->
<svg width="1024pt" height="423pt"
 viewBox="0.00 0.00 1024.34 423.00" xmlns="http://www.w3.org/2000/svg" xmlns:xlink="http://www.w3.org/1999/xlink">
<g id="graph0" class="graph" transform="scale(1 1) rotate(0) translate(4 419)">
<title>lan</title>
<polygon fill="white" stroke="transparent" points="-4,4 -4,-419 1020.34,-419 1020.34,4 -4,4"/>
<!-- 语言 -->
<g id="node1" class="node">
<title>语言</title>
<ellipse fill="none" stroke="black" cx="416.19" cy="-237" rx="29.5" ry="18"/>
<text text-anchor="middle" x="416.19" y="-233.3" font-family="Times,serif" font-size="14.00">语言</text>
</g>
<!-- 编程语言 -->
<g id="node2" class="node">
<title>编程语言</title>
<ellipse fill="none" stroke="black" cx="246.19" cy="-164" rx="48.19" ry="18"/>
<text text-anchor="middle" x="246.19" y="-160.3" font-family="Times,serif" font-size="14.00">编程语言</text>
</g>
<!-- 语言&#45;&gt;编程语言 -->
<g id="edge1" class="edge">
<title>语言&#45;&gt;编程语言</title>
<path fill="none" stroke="black" d="M392.56,-226.13C365.16,-214.68 319.54,-195.63 286.5,-181.83"/>
<polygon fill="black" stroke="black" points="287.69,-178.54 277.12,-177.91 284.99,-185 287.69,-178.54"/>
</g>
<!-- 自然语言 -->
<g id="node6" class="node">
<title>自然语言</title>
<ellipse fill="none" stroke="black" cx="416.19" cy="-164" rx="48.19" ry="18"/>
<text text-anchor="middle" x="416.19" y="-160.3" font-family="Times,serif" font-size="14.00">自然语言</text>
</g>
<!-- 语言&#45;&gt;自然语言 -->
<g id="edge5" class="edge">
<title>语言&#45;&gt;自然语言</title>
<path fill="none" stroke="black" d="M416.19,-218.81C416.19,-210.79 416.19,-201.05 416.19,-192.07"/>
<polygon fill="black" stroke="black" points="419.7,-192.03 416.19,-182.03 412.7,-192.03 419.7,-192.03"/>
</g>
<!-- 函数式编程 -->
<g id="node3" class="node">
<title>函数式编程</title>
<ellipse fill="none" stroke="black" cx="57.19" cy="-91" rx="57.39" ry="18"/>
<text text-anchor="middle" x="57.19" y="-87.3" font-family="Times,serif" font-size="14.00">函数式编程</text>
</g>
<!-- 编程语言&#45;&gt;函数式编程 -->
<g id="edge2" class="edge">
<title>编程语言&#45;&gt;函数式编程</title>
<path fill="none" stroke="black" d="M213.27,-150.63C182.57,-139.1 136.5,-121.79 102.36,-108.97"/>
<polygon fill="black" stroke="black" points="103.22,-105.55 92.63,-105.31 100.76,-112.1 103.22,-105.55"/>
</g>
<!-- 对象化编程 -->
<g id="node4" class="node">
<title>对象化编程</title>
<ellipse fill="none" stroke="black" cx="189.19" cy="-91" rx="57.39" ry="18"/>
<text text-anchor="middle" x="189.19" y="-87.3" font-family="Times,serif" font-size="14.00">对象化编程</text>
</g>
<!-- 编程语言&#45;&gt;对象化编程 -->
<g id="edge3" class="edge">
<title>编程语言&#45;&gt;对象化编程</title>
<path fill="none" stroke="black" d="M232.97,-146.53C225.88,-137.7 217,-126.63 209.09,-116.78"/>
<polygon fill="black" stroke="black" points="211.73,-114.48 202.74,-108.87 206.27,-118.86 211.73,-114.48"/>
</g>
<!-- 流程化编程 -->
<g id="node5" class="node">
<title>流程化编程</title>
<ellipse fill="none" stroke="black" cx="321.19" cy="-91" rx="57.39" ry="18"/>
<text text-anchor="middle" x="321.19" y="-87.3" font-family="Times,serif" font-size="14.00">流程化编程</text>
</g>
<!-- 编程语言&#45;&gt;流程化编程 -->
<g id="edge4" class="edge">
<title>编程语言&#45;&gt;流程化编程</title>
<path fill="none" stroke="black" d="M263.21,-146.89C273.02,-137.6 285.52,-125.77 296.41,-115.47"/>
<polygon fill="black" stroke="black" points="299.13,-117.71 303.98,-108.29 294.32,-112.63 299.13,-117.71"/>
</g>
<!-- 语言习得 -->
<g id="node7" class="node">
<title>语言习得</title>
<ellipse fill="none" stroke="black" cx="444.19" cy="-91" rx="48.19" ry="18"/>
<text text-anchor="middle" x="444.19" y="-87.3" font-family="Times,serif" font-size="14.00">语言习得</text>
</g>
<!-- 自然语言&#45;&gt;语言习得 -->
<g id="edge6" class="edge">
<title>自然语言&#45;&gt;语言习得</title>
<path fill="none" stroke="black" d="M422.97,-145.81C426.21,-137.62 430.15,-127.62 433.75,-118.48"/>
<polygon fill="black" stroke="black" points="437.07,-119.62 437.48,-109.03 430.55,-117.05 437.07,-119.62"/>
</g>
<!-- 学 -->
<g id="node8" class="node">
<title>学</title>
<ellipse fill="none" stroke="black" cx="361.19" cy="-18" rx="27" ry="18"/>
<text text-anchor="middle" x="361.19" y="-14.3" font-family="Times,serif" font-size="14.00">学</text>
</g>
<!-- 语言习得&#45;&gt;学 -->
<g id="edge7" class="edge">
<title>语言习得&#45;&gt;学</title>
<path fill="none" stroke="black" d="M425.77,-74.24C413.75,-63.96 397.94,-50.43 384.97,-39.34"/>
<polygon fill="black" stroke="black" points="387.2,-36.64 377.32,-32.79 382.65,-41.95 387.2,-36.64"/>
</g>
<!-- francias -->
<g id="node9" class="node">
<title>francias</title>
<ellipse fill="none" stroke="black" cx="444.19" cy="-18" rx="38.19" ry="18"/>
<text text-anchor="middle" x="444.19" y="-14.3" font-family="Times,serif" font-size="14.00">francias</text>
</g>
<!-- 语言习得&#45;&gt;francias -->
<g id="edge8" class="edge">
<title>语言习得&#45;&gt;francias</title>
<path fill="none" stroke="black" d="M444.19,-72.81C444.19,-64.79 444.19,-55.05 444.19,-46.07"/>
<polygon fill="black" stroke="black" points="447.7,-46.03 444.19,-36.03 440.7,-46.03 447.7,-46.03"/>
</g>
<!-- 语言比较 -->
<g id="node10" class="node">
<title>语言比较</title>
<ellipse fill="none" stroke="black" cx="548.19" cy="-18" rx="48.19" ry="18"/>
<text text-anchor="middle" x="548.19" y="-14.3" font-family="Times,serif" font-size="14.00">语言比较</text>
</g>
<!-- 语言习得&#45;&gt;语言比较 -->
<g id="edge9" class="edge">
<title>语言习得&#45;&gt;语言比较</title>
<path fill="none" stroke="black" d="M466.25,-74.94C481.28,-64.68 501.37,-50.97 517.9,-39.68"/>
<polygon fill="black" stroke="black" points="519.89,-42.56 526.17,-34.04 515.94,-36.78 519.89,-42.56"/>
</g>
<!-- 符号 -->
<g id="node11" class="node">
<title>符号</title>
<ellipse fill="none" stroke="black" cx="437.19" cy="-310" rx="29.5" ry="18"/>
<text text-anchor="middle" x="437.19" y="-306.3" font-family="Times,serif" font-size="14.00">符号</text>
</g>
<!-- 符号&#45;&gt;语言 -->
<g id="edge10" class="edge">
<title>符号&#45;&gt;语言</title>
<path fill="none" stroke="black" d="M432.22,-292.17C429.82,-284.07 426.89,-274.15 424.19,-265.03"/>
<polygon fill="black" stroke="black" points="427.47,-263.8 421.28,-255.2 420.76,-265.78 427.47,-263.8"/>
</g>
<!-- 知识的结构 -->
<g id="node12" class="node">
<title>知识的结构</title>
<ellipse fill="none" stroke="black" cx="470.19" cy="-397" rx="57.39" ry="18"/>
<text text-anchor="middle" x="470.19" y="-393.3" font-family="Times,serif" font-size="14.00">知识的结构</text>
</g>
<!-- 知识的结构&#45;&gt;符号 -->
<g id="edge11" class="edge">
<title>知识的结构&#45;&gt;符号</title>
<path fill="none" stroke="black" d="M463.52,-378.8C458.89,-366.89 452.66,-350.82 447.41,-337.31"/>
<polygon fill="black" stroke="black" points="450.52,-335.65 443.64,-327.6 443.99,-338.19 450.52,-335.65"/>
</g>
<!-- 关联 -->
<g id="node13" class="node">
<title>关联</title>
<ellipse fill="none" stroke="black" cx="515.19" cy="-310" rx="29.5" ry="18"/>
<text text-anchor="middle" x="515.19" y="-306.3" font-family="Times,serif" font-size="14.00">关联</text>
</g>
<!-- 知识的结构&#45;&gt;关联 -->
<g id="edge12" class="edge">
<title>知识的结构&#45;&gt;关联</title>
<path fill="none" stroke="black" d="M479.09,-379.21C485.54,-367.02 494.38,-350.32 501.7,-336.49"/>
<polygon fill="black" stroke="black" points="504.89,-337.94 506.48,-327.47 498.7,-334.67 504.89,-337.94"/>
</g>
<!-- 图 -->
<g id="node14" class="node">
<title>图</title>
<ellipse fill="none" stroke="black" cx="529.19" cy="-237" rx="27" ry="18"/>
<text text-anchor="middle" x="529.19" y="-233.3" font-family="Times,serif" font-size="14.00">图</text>
</g>
<!-- 关联&#45;&gt;图 -->
<g id="edge13" class="edge">
<title>关联&#45;&gt;图</title>
<path fill="none" stroke="black" d="M518.58,-291.81C520.17,-283.79 522.09,-274.05 523.86,-265.07"/>
<polygon fill="black" stroke="black" points="527.34,-265.52 525.84,-255.03 520.47,-264.16 527.34,-265.52"/>
</g>
<!-- 图的描述记录储存 -->
<g id="node15" class="node">
<title>图的描述记录储存</title>
<ellipse fill="none" stroke="black" cx="567.19" cy="-164" rx="85.29" ry="18"/>
<text text-anchor="middle" x="567.19" y="-160.3" font-family="Times,serif" font-size="14.00">图的描述记录储存</text>
</g>
<!-- 图&#45;&gt;图的描述记录储存 -->
<g id="edge14" class="edge">
<title>图&#45;&gt;图的描述记录储存</title>
<path fill="none" stroke="black" d="M537.82,-219.89C542.4,-211.33 548.14,-200.61 553.33,-190.91"/>
<polygon fill="black" stroke="black" points="556.44,-192.51 558.08,-182.04 550.27,-189.2 556.44,-192.51"/>
</g>
<!-- DOT(s) -->
<g id="node16" class="node">
<title>DOT(s)</title>
<ellipse fill="none" stroke="black" cx="567.19" cy="-91" rx="38.19" ry="18"/>
<text text-anchor="middle" x="567.19" y="-87.3" font-family="Times,serif" font-size="14.00">DOT(s)</text>
</g>
<!-- 图的描述记录储存&#45;&gt;DOT(s) -->
<g id="edge15" class="edge">
<title>图的描述记录储存&#45;&gt;DOT(s)</title>
<path fill="none" stroke="black" d="M567.19,-145.81C567.19,-137.79 567.19,-128.05 567.19,-119.07"/>
<polygon fill="black" stroke="black" points="570.7,-119.03 567.19,-109.03 563.7,-119.03 570.7,-119.03"/>
</g>
<!-- 法剧（歌还可以) -->
<g id="node17" class="node">
<title>法剧（歌还可以)</title>
<ellipse fill="none" stroke="black" cx="749.19" cy="-164" rx="78.79" ry="18"/>
<text text-anchor="middle" x="749.19" y="-160.3" font-family="Times,serif" font-size="14.00">法剧（歌还可以)</text>
</g>
<!-- 学 francias -->
<g id="node18" class="node">
<title>学 francias</title>
<ellipse fill="none" stroke="black" cx="749.19" cy="-91" rx="51.99" ry="18"/>
<text text-anchor="middle" x="749.19" y="-87.3" font-family="Times,serif" font-size="14.00">学 francias</text>
</g>
<!-- 法剧（歌还可以)&#45;&gt;学 francias -->
<g id="edge16" class="edge">
<title>法剧（歌还可以)&#45;&gt;学 francias</title>
<path fill="none" stroke="black" d="M749.19,-145.81C749.19,-137.79 749.19,-128.05 749.19,-119.07"/>
<polygon fill="black" stroke="black" points="752.7,-119.03 749.19,-109.03 745.7,-119.03 752.7,-119.03"/>
</g>
<!-- 德剧（奇妙内涵） -->
<g id="node19" class="node">
<title>德剧（奇妙内涵）</title>
<ellipse fill="none" stroke="black" cx="931.19" cy="-164" rx="85.29" ry="18"/>
<text text-anchor="middle" x="931.19" y="-160.3" font-family="Times,serif" font-size="14.00">德剧（奇妙内涵）</text>
</g>
<!-- 观望德语 -->
<g id="node20" class="node">
<title>观望德语</title>
<ellipse fill="none" stroke="black" cx="931.19" cy="-91" rx="48.19" ry="18"/>
<text text-anchor="middle" x="931.19" y="-87.3" font-family="Times,serif" font-size="14.00">观望德语</text>
</g>
<!-- 德剧（奇妙内涵）&#45;&gt;观望德语 -->
<g id="edge17" class="edge">
<title>德剧（奇妙内涵）&#45;&gt;观望德语</title>
<path fill="none" stroke="black" d="M931.19,-145.81C931.19,-137.79 931.19,-128.05 931.19,-119.07"/>
<polygon fill="black" stroke="black" points="934.7,-119.03 931.19,-109.03 927.7,-119.03 934.7,-119.03"/>
</g>
<!-- 音乐剧 -->
<g id="node21" class="node">
<title>音乐剧</title>
<ellipse fill="none" stroke="black" cx="839.19" cy="-310" rx="38.19" ry="18"/>
<text text-anchor="middle" x="839.19" y="-306.3" font-family="Times,serif" font-size="14.00">音乐剧</text>
</g>
<!-- 分类 -->
<g id="node22" class="node">
<title>分类</title>
<ellipse fill="none" stroke="black" cx="839.19" cy="-237" rx="29.5" ry="18"/>
<text text-anchor="middle" x="839.19" y="-233.3" font-family="Times,serif" font-size="14.00">分类</text>
</g>
<!-- 音乐剧&#45;&gt;分类 -->
<g id="edge18" class="edge">
<title>音乐剧&#45;&gt;分类</title>
<path fill="none" stroke="black" d="M839.19,-291.81C839.19,-283.79 839.19,-274.05 839.19,-265.07"/>
<polygon fill="black" stroke="black" points="842.7,-265.03 839.19,-255.03 835.7,-265.03 842.7,-265.03"/>
</g>
<!-- 分类&#45;&gt;法剧（歌还可以) -->
<g id="edge19" class="edge">
<title>分类&#45;&gt;法剧（歌还可以)</title>
<path fill="none" stroke="black" d="M821.84,-222.31C809.46,-212.54 792.52,-199.18 778.11,-187.81"/>
<polygon fill="black" stroke="black" points="779.99,-184.83 769.97,-181.39 775.65,-190.33 779.99,-184.83"/>
</g>
<!-- 分类&#45;&gt;德剧（奇妙内涵） -->
<g id="edge20" class="edge">
<title>分类&#45;&gt;德剧（奇妙内涵）</title>
<path fill="none" stroke="black" d="M856.93,-222.31C869.5,-212.61 886.67,-199.36 901.34,-188.04"/>
<polygon fill="black" stroke="black" points="903.85,-190.53 909.63,-181.65 899.57,-184.99 903.85,-190.53"/>
</g>
<!-- 音乐 -->
<g id="node23" class="node">
<title>音乐</title>
<ellipse fill="none" stroke="black" cx="839.19" cy="-397" rx="29.5" ry="18"/>
<text text-anchor="middle" x="839.19" y="-393.3" font-family="Times,serif" font-size="14.00">音乐</text>
</g>
<!-- 音乐&#45;&gt;音乐剧 -->
<g id="edge21" class="edge">
<title>音乐&#45;&gt;音乐剧</title>
<path fill="none" stroke="black" d="M839.19,-378.8C839.19,-367.16 839.19,-351.55 839.19,-338.24"/>
<polygon fill="black" stroke="black" points="842.7,-338.18 839.19,-328.18 835.7,-338.18 842.7,-338.18"/>
<text text-anchor="middle" x="875.19" y="-349.8" font-family="Times,serif" font-size="14.00">曲式、设计</text>
</g>
</g>
</svg>
