<?xml version="1.0" encoding="UTF-8" standalone="no"?>
<!DOCTYPE svg PUBLIC "-//W3C//DTD SVG 1.1//EN"
 "http://www.w3.org/Graphics/SVG/1.1/DTD/svg11.dtd">
<!-- Generated by graphviz version 2.43.0 (0)
 -->
<!-- Title: development Pages: 1 -->
<svg width="424pt" height="332pt"
 viewBox="0.00 0.00 424.34 332.00" xmlns="http://www.w3.org/2000/svg" xmlns:xlink="http://www.w3.org/1999/xlink">
<g id="graph0" class="graph" transform="scale(1 1) rotate(0) translate(4 328)">
<title>development</title>
<polygon fill="white" stroke="transparent" points="-4,4 -4,-328 420.34,-328 420.34,4 -4,4"/>
<!-- 知乎 -->
<g id="node1" class="node">
<title>知乎</title>
<ellipse fill="none" stroke="black" cx="29.25" cy="-306" rx="29.5" ry="18"/>
<text text-anchor="middle" x="29.25" y="-302.3" font-family="Times,serif" font-size="14.00">知乎</text>
</g>
<!-- 为什么张雪峰什么专业都懂? -->
<g id="node2" class="node">
<title>为什么张雪峰什么专业都懂?</title>
<g id="a_node2"><a xlink:href="https://www.zhihu.com/question/597591477/answer/3421653887" xlink:title="为什么张雪峰什么专业都懂?">
<ellipse fill="none" stroke="black" cx="202.25" cy="-306" rx="126.18" ry="18"/>
<text text-anchor="middle" x="202.25" y="-302.3" font-family="Times,serif" font-size="14.00">为什么张雪峰什么专业都懂?</text>
</a>
</g>
</g>
<!-- 信息壁垒好奇再认识 -->
<g id="node3" class="node">
<title>信息壁垒好奇再认识</title>
<ellipse fill="none" stroke="black" cx="202.25" cy="-234" rx="94.48" ry="18"/>
<text text-anchor="middle" x="202.25" y="-230.3" font-family="Times,serif" font-size="14.00">信息壁垒好奇再认识</text>
</g>
<!-- 为什么张雪峰什么专业都懂?&#45;&gt;信息壁垒好奇再认识 -->
<g id="edge1" class="edge">
<title>为什么张雪峰什么专业都懂?&#45;&gt;信息壁垒好奇再认识</title>
<path fill="none" stroke="black" d="M202.25,-287.7C202.25,-279.98 202.25,-270.71 202.25,-262.11"/>
<polygon fill="black" stroke="black" points="205.75,-262.1 202.25,-252.1 198.75,-262.1 205.75,-262.1"/>
</g>
<!-- 找以前的精华帖 -->
<g id="node4" class="node">
<title>找以前的精华帖</title>
<ellipse fill="none" stroke="black" cx="202.25" cy="-162" rx="75.29" ry="18"/>
<text text-anchor="middle" x="202.25" y="-158.3" font-family="Times,serif" font-size="14.00">找以前的精华帖</text>
</g>
<!-- 信息壁垒好奇再认识&#45;&gt;找以前的精华帖 -->
<g id="edge2" class="edge">
<title>信息壁垒好奇再认识&#45;&gt;找以前的精华帖</title>
<path fill="none" stroke="black" d="M202.25,-215.7C202.25,-207.98 202.25,-198.71 202.25,-190.11"/>
<polygon fill="black" stroke="black" points="205.75,-190.1 202.25,-180.1 198.75,-190.1 205.75,-190.1"/>
</g>
<!-- 邀请注册制 -->
<g id="node5" class="node">
<title>邀请注册制</title>
<ellipse fill="none" stroke="black" cx="202.25" cy="-90" rx="57.39" ry="18"/>
<text text-anchor="middle" x="202.25" y="-86.3" font-family="Times,serif" font-size="14.00">邀请注册制</text>
</g>
<!-- 找以前的精华帖&#45;&gt;邀请注册制 -->
<g id="edge3" class="edge">
<title>找以前的精华帖&#45;&gt;邀请注册制</title>
<path fill="none" stroke="black" d="M202.25,-143.7C202.25,-135.98 202.25,-126.71 202.25,-118.11"/>
<polygon fill="black" stroke="black" points="205.75,-118.1 202.25,-108.1 198.75,-118.1 205.75,-118.1"/>
</g>
<!-- HeXiaobo -->
<g id="node6" class="node">
<title>HeXiaobo</title>
<g id="a_node6"><a xlink:href="https://www.zhihu.com/people/hexiaobo/answers" xlink:title="HeXiaobo">
<ellipse fill="none" stroke="black" cx="202.25" cy="-18" rx="46.59" ry="18"/>
<text text-anchor="middle" x="202.25" y="-14.3" font-family="Times,serif" font-size="14.00">HeXiaobo</text>
</a>
</g>
</g>
<!-- 邀请注册制&#45;&gt;HeXiaobo -->
<g id="edge4" class="edge">
<title>邀请注册制&#45;&gt;HeXiaobo</title>
<path fill="none" stroke="black" d="M202.25,-71.7C202.25,-63.98 202.25,-54.71 202.25,-46.11"/>
<polygon fill="black" stroke="black" points="205.75,-46.1 202.25,-36.1 198.75,-46.1 205.75,-46.1"/>
</g>
<!-- python -->
<g id="node7" class="node">
<title>python</title>
<ellipse fill="none" stroke="black" cx="381.25" cy="-306" rx="35.19" ry="18"/>
<text text-anchor="middle" x="381.25" y="-302.3" font-family="Times,serif" font-size="14.00">python</text>
</g>
</g>
</svg>
