<?xml version="1.0" encoding="UTF-8" standalone="no"?>
<!-- Created with Inkscape (http://www.inkscape.org/) -->

<svg
   width="123.09413mm"
   height="122.06088mm"
   viewBox="0 0 123.09413 122.06088"
   version="1.1"
   id="svg1"
   xmlns:inkscape="http://www.inkscape.org/namespaces/inkscape"
   xmlns:sodipodi="http://sodipodi.sourceforge.net/DTD/sodipodi-0.dtd"
   xmlns="http://www.w3.org/2000/svg"
   xmlns:svg="http://www.w3.org/2000/svg">
  <sodipodi:namedview
     id="namedview1"
     pagecolor="#ffffff"
     bordercolor="#000000"
     borderopacity="0.25"
     inkscape:showpageshadow="2"
     inkscape:pageopacity="0.0"
     inkscape:pagecheckerboard="0"
     inkscape:deskcolor="#d1d1d1"
     inkscape:document-units="mm" />
  <defs
     id="defs1">
    <clipPath
       id="clip0">
      <rect
         x="697"
         y="52"
         width="488"
         height="488"
         id="rect1" />
    </clipPath>
    <clipPath
       id="clip1">
      <rect
         x="0"
         y="0"
         width="4648200"
         height="4648200"
         id="rect2" />
    </clipPath>
  </defs>
  <g
     inkscape:label="图层 1"
     inkscape:groupmode="layer"
     id="layer1"
     transform="translate(-31.321154,-67.812872)">
    <g
       clip-path="url(#clip0)"
       transform="matrix(0.26458333,0,0,0.26458333,-155.97753,50.188984)"
       id="g5">
      <g
         clip-path="url(#clip1)"
         transform="matrix(1.04987e-4,0,0,1.04987e-4,697,52)"
         id="g4">
        <path
           style="fill:#2b0000;stroke-width:0.667372"
           d="m 368.05565,646.65309 c -4.22113,-0.49184 -9.92716,-1.49037 -12.68007,-2.21896 -2.75291,-0.72858 -6.35671,-1.67713 -8.00846,-2.10788 -1.65175,-0.43076 -3.94951,-1.20327 -5.10615,-1.7167 -1.15664,-0.51342 -2.58314,-0.9335 -3.17002,-0.9335 -0.58687,0 -1.06704,-0.30032 -1.06704,-0.66737 0,-0.36706 -0.37984,-0.66737 -0.8441,-0.66737 -0.46425,0 -1.96475,-0.60064 -3.33443,-1.33475 -1.3697,-0.73411 -2.91689,-1.33474 -3.43821,-1.33474 -0.52133,0 -1.04797,-0.22524 -1.17032,-0.50053 -0.12235,-0.27529 -1.57389,-1.17005 -3.22563,-1.98835 -1.65175,-0.81831 -4.20445,-2.24293 -5.67267,-3.16582 -1.46821,-0.9229 -3.3452,-2.02841 -4.17107,-2.45669 -0.82587,-0.42828 -1.50159,-1.03081 -1.50159,-1.33894 0,-0.30814 -0.40393,-0.56025 -0.89762,-0.56025 -0.49369,0 -1.44119,-0.60064 -2.10555,-1.33474 -0.66436,-0.73411 -1.43082,-1.33475 -1.70324,-1.33475 -1.36169,0 -11.33778,-9.71447 -16.14968,-15.72616 -1.7439,-2.17872 -3.47072,-4.32404 -3.83738,-4.76736 -0.36667,-0.44333 -0.66666,-1.12846 -0.66666,-1.52253 0,-0.39407 -0.45048,-0.88935 -1.00106,-1.10063 -0.55058,-0.21128 -1.00106,-0.66449 -1.00106,-1.00713 0,-0.73679 -2.78103,-4.80814 -3.5037,-5.12932 -0.27529,-0.12236 -0.50053,-0.49192 -0.50053,-0.82127 0,-0.32933 -0.97603,-2.18129 -2.16896,-4.11545 -1.19293,-1.93417 -2.91975,-5.01825 -3.83739,-6.85353 -0.91764,-1.83527 -1.89415,-3.43712 -2.17002,-3.55966 -0.27588,-0.12255 -0.68965,-1.3989 -0.91951,-2.83634 -0.22986,-1.43743 -0.64643,-2.61352 -0.92573,-2.61352 -0.27928,0 -0.70499,-1.05111 -0.946,-2.3358 -0.241,-1.28469 -0.69148,-2.3358 -1.00105,-2.3358 -0.30958,0 -0.77219,-1.11581 -1.02804,-2.47958 -0.25584,-1.36378 -0.85439,-3.24076 -1.3301,-4.17108 -0.4757,-0.93032 -1.07673,-2.96627 -1.33559,-4.52433 -0.25888,-1.55806 -0.70977,-2.98059 -1.00198,-3.16119 -0.29222,-0.1806 -0.73758,-1.97934 -0.9897,-3.99721 -0.25212,-2.01787 -0.70814,-3.8232 -1.01339,-4.01185 -0.30525,-0.18866 -0.76426,-2.146 -1.02001,-4.34964 -0.25576,-2.20364 -0.73579,-4.17397 -1.06673,-4.3785 -0.33094,-0.20453 -0.6017,-1.34787 -0.6017,-2.54074 0,-1.19287 -0.41095,-2.73086 -0.91321,-3.41775 -0.88435,-1.20941 -0.93708,-1.20428 -1.66843,0.16226 -1.16976,2.18573 -0.9913,30.4782 0.23678,37.53698 1.78458,10.25747 3.54829,17.32585 5.01685,20.10584 0.31546,0.59716 0.77831,2.17714 1.02855,3.51108 0.25025,1.33393 0.72127,2.5899 1.04671,2.79103 0.32545,0.20114 0.59172,0.8498 0.59172,1.44148 0,1.76106 9.21313,20.86873 10.06226,20.86873 0.28916,0 0.69903,0.52555 0.91081,1.1679 0.21179,0.64234 1.27993,2.21901 2.37365,3.5037 2.86494,3.36518 2.66889,3.10859 7.52128,9.84374 2.44614,3.39525 4.08217,6.1719 3.63562,6.17033 -2.95783,-0.0104 -16.24056,-11.54993 -24.50362,-21.28778 -3.89256,-4.5873 -10.37537,-13.28446 -11.48145,-15.40319 -0.47571,-0.91124 -1.84096,-3.15677 -3.03389,-4.99007 -1.19293,-1.8333 -2.16896,-3.71552 -2.16896,-4.18271 0,-0.46719 -0.27646,-0.84943 -0.61434,-0.84943 -0.33789,0 -0.81223,-0.90095 -1.05409,-2.00212 -0.24185,-1.10116 -0.71619,-2.00211 -1.05408,-2.00211 -0.33789,0 -0.61435,-0.44123 -0.61435,-0.98051 0,-0.85619 -1.40653,-4.11162 -3.39845,-7.86578 -1.13366,-2.13658 -3.94264,-11.31959 -3.94264,-12.88911 0,-0.84911 -0.26463,-1.7074 -0.58806,-1.90729 -0.32344,-0.1999 -0.8045,-2.67317 -1.06904,-5.49616 -0.26453,-2.82299 -0.73919,-5.75542 -1.0548,-6.5165 -1.2663,-3.05374 -1.96979,-24.07537 -1.22192,-36.51348 0.40524,-6.73955 0.97219,-12.55405 1.25991,-12.9211 0.28772,-0.36706 0.7409,-2.61944 1.00708,-5.00529 0.26618,-2.38586 0.67303,-4.63824 0.9041,-5.00529 0.23108,-0.36706 0.76302,-1.86864 1.18209,-3.33686 0.41907,-1.46822 1.42389,-4.32124 2.23294,-6.34004 0.80905,-2.0188 1.80756,-4.72165 2.21892,-6.00634 0.41136,-1.28469 0.97777,-2.49909 1.25869,-2.69866 0.28092,-0.19958 0.59328,-1.10053 0.69413,-2.00212 0.14638,-1.30863 -0.0858,-1.59799 -1.15138,-1.43462 -0.73411,0.11255 -1.87552,0.86334 -2.53648,1.66843 -0.66096,0.80509 -2.35845,2.73125 -3.77222,4.28036 -3.01772,3.30662 -8.0398,10.81924 -8.0398,12.02689 0,0.46188 -0.2291,0.83978 -0.50912,0.83978 -0.55798,0 -0.94022,0.64593 -3.66195,6.18801 -1.0094,2.05537 -1.83527,4.1467 -1.83527,4.64739 0,0.5007 -0.26385,1.19565 -0.58632,1.54435 -0.32247,0.34871 -1.22626,2.88639 -2.00841,5.6393 -0.78215,2.75291 -1.88479,6.4394 -2.4503,8.1922 -0.56552,1.75279 -1.20921,4.75597 -1.43045,6.67372 -0.22123,1.91774 -0.73173,3.70114 -1.13445,3.96311 -1.04674,0.68089 -1.02076,40.67376 0.0273,41.96624 0.41771,0.51515 0.9769,2.58838 1.24262,4.60718 0.26573,2.0188 0.70834,3.97087 0.98359,4.33792 0.5857,0.78106 1.47861,7.00741 1.00492,7.00741 -0.17697,0 -1.25166,-2.02715 -2.38821,-4.50476 -3.12164,-6.80502 -3.69491,-8.19091 -5.03802,-12.17954 -0.6798,-2.0188 -1.43822,-3.82421 -1.68539,-4.01202 -0.24717,-0.18781 -0.6617,-2.29003 -0.92118,-4.6716 -0.25948,-2.38158 -0.69951,-4.63045 -0.97785,-4.99751 -0.27834,-0.36705 -0.72314,-2.61943 -0.98844,-5.00529 -0.2653,-2.38585 -0.8243,-4.75956 -1.24224,-5.27491 -1.05478,-1.30063 -1.06985,-35.28523 -0.016,-35.95972 0.40916,-0.26187 0.96237,-2.25129 1.22935,-4.42095 0.26698,-2.16966 0.73279,-4.42204 1.03513,-5.00529 0.30235,-0.58325 1.19914,-3.16268 1.99288,-5.73206 0.79373,-2.56938 1.87014,-5.61795 2.39201,-6.77458 0.52187,-1.15664 0.94886,-2.27624 0.94886,-2.48801 0,-0.21177 1.05111,-2.63011 2.3358,-5.3741 1.28469,-2.74399 2.3358,-5.30327 2.3358,-5.6873 0,-0.38402 0.27646,-0.69823 0.61435,-0.69823 0.33789,0 0.81222,-0.90095 1.05408,-2.00212 0.24186,-1.10116 0.68364,-2.00211 0.98174,-2.00211 0.29809,0 0.73688,-0.7765 0.97508,-1.72556 0.2382,-0.94906 0.73573,-2.07525 1.10563,-2.50264 0.3699,-0.4274 2.93679,-4.23074 5.70421,-8.45187 7.41772,-11.31421 15.75332,-20.64356 22.93351,-25.66757 2.0188,-1.41256 3.77065,-2.82221 3.893,-3.13255 0.12236,-0.31033 0.62592,-0.56425 1.11902,-0.56425 1.01427,0 2.99644,-3.58408 2.99644,-5.41802 0,-1.94631 -1.95674,-2.53931 -5.84329,-1.77085 -1.92495,0.38061 -3.49991,0.95254 -3.49991,1.27096 0,0.31842 -0.44295,0.57894 -0.98432,0.57894 -1.63479,0 -15.60071,7.89924 -17.7021,10.01245 -0.18353,0.18456 -1.68484,1.23567 -3.33625,2.3358 -2.79621,1.86278 -16.01884,14.64164 -19.02071,18.38236 -3.1502,3.92555 -5.00529,6.59756 -5.00529,7.20944 0,0.36097 -0.22524,0.7564 -0.50053,0.87875 -0.75983,0.3377 -3.5037,4.41058 -3.5037,5.20073 0,0.38191 -0.24764,0.69439 -0.55032,0.69439 -0.63139,0 -8.12552,14.63657 -8.12552,15.86973 0,0.44801 -0.30032,0.81457 -0.66737,0.81457 -0.36706,0 -0.66737,0.31679 -0.66737,0.70398 0,0.60988 -0.83579,2.69017 -3.33686,8.30554 -1.20395,2.70308 -3.15296,7.37719 -3.58791,8.60452 -0.24626,0.69488 -0.63484,1.07632 -0.8635,0.84765 -0.60373,-0.60372 -0.24341,-10.61823 0.41135,-11.43277 0.30456,-0.37889 0.77187,-2.34063 1.03846,-4.35943 0.26659,-2.0188 0.67361,-3.97087 0.90449,-4.33792 0.23088,-0.36705 0.76265,-1.86864 1.18172,-3.33686 0.41907,-1.46822 1.42961,-4.32123 2.24565,-6.34003 0.81604,-2.0188 1.81356,-4.79674 2.21671,-6.17319 0.40315,-1.37646 0.97128,-2.50265 1.2625,-2.50265 0.29123,0 0.5295,-0.31679 0.5295,-0.70398 0,-1.51395 5.80776,-12.62033 7.3095,-13.9782 0.20297,-0.18353 1.26914,-1.68512 2.36927,-3.33686 1.10014,-1.65175 2.30056,-3.3453 2.66761,-3.76344 0.36706,-0.41815 1.21699,-1.52036 1.88875,-2.44937 3.99921,-5.53073 16.50005,-18.49431 21.77329,-22.57926 2.03512,-1.57652 3.80032,-3.10103 3.92267,-3.38778 0.12236,-0.28676 0.65734,-0.52138 1.18885,-0.52138 0.53151,0 1.13925,-0.45048 1.35053,-1.00106 0.21128,-0.55058 0.75594,-1.00106 1.21036,-1.00106 0.45443,0 1.36979,-0.60063 2.03415,-1.33474 0.66436,-0.73411 1.54512,-1.33474 1.95724,-1.33474 0.41212,0 1.26358,-0.60064 1.89215,-1.33475 0.62856,-0.73411 1.59626,-1.33474 2.15043,-1.33474 0.55417,0 1.00759,-0.2291 1.00759,-0.50912 0,-0.50543 0.64056,-0.91609 4.38959,-2.81416 1.07274,-0.54311 2.1006,-1.14402 2.28413,-1.33536 0.7487,-0.78056 6.56323,-3.34983 7.58103,-3.34983 0.60215,0 1.09481,-0.27036 1.09481,-0.6008 0,-0.33045 1.50251,-0.96126 3.33891,-1.40181 1.83641,-0.44054 3.50588,-1.07113 3.70994,-1.4013 0.20405,-0.33018 0.87884,-0.61051 1.49953,-0.62296 0.62068,-0.0125 2.32978,-0.6029 3.798,-1.3121 1.46822,-0.7092 3.32747,-1.29965 4.13168,-1.3121 0.80421,-0.0125 1.62612,-0.28786 1.82646,-0.61202 0.20034,-0.32416 2.09505,-0.80357 4.21046,-1.06537 2.11541,-0.26181 4.26787,-0.82246 4.78325,-1.2459 0.6398,-0.52569 5.2441,-0.7699 14.51538,-0.7699 14.37476,0 15.44218,-0.26121 11.74299,-2.87364 -2.52124,-1.78054 -7.83819,-4.13377 -9.33997,-4.13377 -0.68083,0 -1.52598,-0.2881 -1.8781,-0.64022 -0.6963,-0.69629 -12.79925,-2.22436 -17.64577,-2.22787 -5.14187,-0.004 -20.22144,1.53704 -20.97389,2.14303 -0.39364,0.31701 -2.59268,0.78948 -4.88678,1.04994 -2.29409,0.26045 -4.17107,0.71028 -4.17107,0.99962 0,0.28933 -1.35143,0.72873 -3.00317,0.97642 -1.65175,0.24769 -3.00318,0.67296 -3.00318,0.94504 0,0.27208 -1.42651,0.82416 -3.17002,1.22684 -4.01165,0.92654 -9.7745,3.04621 -10.06619,3.70251 -0.12235,0.27529 -0.67665,0.50053 -1.23177,0.50053 -0.55513,0 -1.80645,0.42811 -2.78072,0.95136 -4.39687,2.36141 -10.84094,5.14598 -11.44085,4.94375 -0.75891,-0.25584 2.08363,-3.44799 5.24946,-5.89511 1.18714,-0.91764 2.81745,-2.22659 3.6229,-2.90878 1.99345,-1.6884 9.47797,-6.54174 13.11129,-8.50203 1.63405,-0.88162 3.38232,-1.97834 3.88506,-2.43716 0.50274,-0.45882 1.31806,-0.83422 1.81184,-0.83422 0.49378,0 0.99788,-0.22523 1.12023,-0.50053 0.39523,-0.88925 4.75499,-2.76412 10.56672,-4.54409 3.11997,-0.95556 6.2733,-2.00797 7.00741,-2.33868 1.80552,-0.81338 6.49522,-1.92751 11.34532,-2.6953 2.20233,-0.34863 4.52571,-0.92643 5.16308,-1.28399 1.55956,-0.8749 27.66401,-0.85892 28.20552,0.0173 0.22686,0.36705 2.12157,0.69271 4.21047,0.72369 3.68321,0.0546 6.39253,0.39639 15.47701,1.95241 4.5074,0.77205 18.10259,5.13362 18.68641,5.99493 0.18353,0.27075 1.07047,0.72254 1.97099,1.00396 0.90052,0.28143 2.01629,0.84746 2.47949,1.25785 1.69283,1.49984 2.60998,2.15533 5.22642,3.7353 1.46821,0.88661 2.81964,1.77887 3.00317,1.98281 0.18353,0.20393 1.68511,1.2709 3.33686,2.37103 1.65175,1.10013 3.35263,2.30056 3.77975,2.66761 0.42712,0.36705 1.75538,1.41817 2.9517,2.3358 1.19633,0.91764 3.00107,2.4943 4.01054,3.5037 2.4678,2.46763 4.12055,2.46763 3.51597,0 -0.2473,-1.0094 -0.7035,-1.93537 -1.01377,-2.05773 -0.31027,-0.12235 -0.56412,-0.60195 -0.56412,-1.06578 0,-0.74265 -0.62492,-1.65559 -3.32449,-4.85678 -0.37386,-0.44333 -0.67974,-1.11677 -0.67974,-1.49655 0,-0.76319 -11.06183,-11.88788 -14.96404,-15.04908 -1.35929,-1.10116 -3.57877,-2.99079 -4.93218,-4.19917 -1.35341,-1.20839 -3.13646,-2.36714 -3.96233,-2.575 -0.82588,-0.20786 -1.50159,-0.57985 -1.50159,-0.82664 0,-0.24679 -0.82587,-0.8267 -1.83527,-1.28869 -3.38372,-1.54869 -4.83845,-2.43497 -4.83845,-2.94776 0,-0.28001 -0.56851,-0.50912 -1.26334,-0.50912 -0.69484,0 -1.42329,-0.4168 -1.61877,-0.92622 -0.19548,-0.50943 -1.50397,-1.06955 -2.90774,-1.24472 -2.67281,-0.33354 -6.97047,-1.83031 -7.57993,-2.63992 -0.19581,-0.26012 -2.74851,-0.96075 -5.67266,-1.55695 -2.92415,-0.5962 -5.7791,-1.32255 -6.34432,-1.6141 -0.56523,-0.29156 -2.66746,-0.75075 -4.67161,-1.02043 -2.00416,-0.26967 -3.96064,-0.74509 -4.34775,-1.05648 -0.38711,-0.31138 -3.1745,-0.7722 -6.19419,-1.02403 -3.0197,-0.25183 -5.64879,-0.71423 -5.84243,-1.02755 -0.19363,-0.31331 -2.20307,-0.56967 -4.46541,-0.56967 -3.72518,0 -3.98687,-0.0886 -2.77314,-0.93871 0.73712,-0.5163 2.83108,-1.15482 4.65326,-1.41893 1.82218,-0.26412 3.63119,-0.7319 4.02003,-1.03952 1.14812,-0.90831 23.47589,-1.4544 28.99107,-0.70906 12.31081,1.6637 22.48981,4.57364 31.0328,8.87153 9.52966,4.79427 12.44702,6.4419 14.01567,7.91557 0.91717,0.86163 1.66757,1.37019 1.66757,1.13014 0,-0.24005 0.97603,0.16228 2.16896,0.89408 1.19293,0.73179 2.69452,1.51151 3.33686,1.73271 0.64235,0.22119 1.1679,0.81762 1.1679,1.32539 0,0.50777 0.32803,0.92322 0.72895,0.92322 2.48544,0 28.63542,24.71191 28.63542,27.06067 0,0.34035 2.6428,4.27913 3.33686,4.97319 0.18353,0.18352 0.85273,1.38479 1.48713,2.66948 1.57296,3.18534 5.70779,10.68059 6.89011,12.48975 0.53128,0.81296 0.96597,2.05254 0.96597,2.75461 0,1.3851 1.69427,3.17435 2.18411,2.30657 1.87952,-3.32966 0.21306,-15.76116 -2.91065,-21.71295 -0.33452,-0.63736 -0.60821,-1.5068 -0.60821,-1.93208 0,-0.92508 -4.66122,-10.77997 -5.32466,-11.25757 -0.39733,-0.28602 -1.52737,-2.0583 -5.0277,-7.8851 -1.16596,-1.94092 -3.28327,-5.09484 -3.98748,-5.93971 -0.37182,-0.44608 -1.05142,-1.25927 -1.51024,-1.8071 -0.45882,-0.54783 -0.83422,-1.2494 -0.83422,-1.55904 0,-0.69002 -5.40921,-6.82408 -8.90788,-10.10158 -1.41233,-1.32304 -5.49358,-5.29811 -9.06944,-8.83349 -3.57587,-3.53538 -7.15033,-6.63387 -7.94326,-6.88553 -0.79292,-0.25167 -1.44167,-0.68945 -1.44167,-0.97285 0,-0.2834 -0.82587,-0.90317 -1.83527,-1.37727 -3.27802,-1.53963 -0.29857,-1.5324 3.6815,0.009 9.51322,3.68411 24.026,12.22594 27.44809,16.15522 0.8791,1.0094 2.00529,1.83527 2.50264,1.83527 0.49735,0 0.90513,0.3754 0.90619,0.83422 10e-4,0.45881 0.90114,1.43485 2.0002,2.16895 1.09905,0.73411 1.99913,1.71014 2.00019,2.16896 0.001,0.45882 0.24019,0.83422 0.5314,0.83422 0.59341,0 7.80957,7.02271 9.70571,9.44553 1.10028,1.4059 5.52388,8.17518 7.57503,11.5918 0.43572,0.7258 1.63699,2.97138 2.66949,4.99018 1.03249,2.0188 2.10249,3.77065 2.37778,3.893 0.27529,0.12235 0.50053,0.52744 0.50053,0.9002 0,0.37276 0.43706,1.62408 0.97123,2.78071 1.10117,2.38431 2.77983,6.98569 3.81056,10.44513 0.38278,1.28469 0.9311,2.63612 1.21849,3.00317 0.28739,0.36706 0.73278,1.94215 0.98974,3.50021 0.25697,1.55806 0.71526,2.98614 1.01844,3.17351 0.30319,0.18737 0.76148,1.61546 1.01845,3.17352 0.25696,1.55806 0.6989,3.13315 0.98207,3.5002 2.0401,2.64444 3.39549,15.43592 3.18115,30.02217 -0.15772,10.73383 -0.0593,12.02572 0.93034,12.21669 0.77214,0.149 1.2451,-0.41652 1.56449,-1.87065 0.25177,-1.14633 0.87809,-2.88987 1.39182,-3.87454 0.51372,-0.98468 0.93589,-2.25582 0.93815,-2.82475 0.002,-0.56893 0.27808,-1.31973 0.61294,-1.66843 2.51384,-2.61783 4.27905,-33.33172 2.06873,-35.995 -0.33348,-0.40182 -0.81513,-3.49648 -1.07032,-6.87702 -0.2552,-3.38055 -0.67845,-6.14645 -0.94054,-6.14645 -0.26211,0 -0.67098,-1.86018 -0.90861,-4.13373 -0.23764,-2.27355 -0.69317,-4.3007 -1.01231,-4.50476 -0.31913,-0.20407 -0.90394,-1.72246 -1.29955,-3.37421 -1.31038,-5.47089 -2.64079,-9.65148 -3.71669,-11.67901 -0.58432,-1.10116 -1.06425,-2.37751 -1.06652,-2.83633 -0.002,-0.45882 -0.28057,-0.83421 -0.61845,-0.83421 -0.33789,0 -0.81223,-0.90096 -1.05409,-2.00212 -0.24185,-1.10116 -0.71619,-2.00212 -1.05408,-2.00212 -0.33789,0 -0.62454,-0.67571 -0.63699,-1.50158 -0.0125,-0.82588 -0.6029,-2.70286 -1.3121,-4.17108 -0.7092,-1.46822 -1.29965,-3.19504 -1.3121,-3.83739 -0.0125,-0.64234 -0.32296,-1.1679 -0.69002,-1.1679 -0.36705,0 -0.64971,-0.97603 -0.62812,-2.16896 0.0351,-1.93995 0.12318,-2.03659 0.83421,-0.91534 1.19726,1.88801 7.39653,9.39226 7.96922,9.64679 0.27529,0.12236 0.50053,0.46015 0.50053,0.75067 0,0.29051 1.27635,1.86335 2.83633,3.4952 1.55998,1.63185 3.73644,4.29722 4.83657,5.92306 1.10013,1.62583 2.15124,3.10621 2.3358,3.28974 0.81807,0.81349 6.11759,12.05611 7.39273,15.68324 7.71019,21.93155 8.60893,49.93438 2.39895,74.74567 -1.43967,5.75202 -2.44972,9.05906 -3.46514,11.34532 -0.48907,1.10116 -1.51156,3.41215 -2.2722,5.13552 -0.76064,1.72337 -1.38297,3.75051 -1.38297,4.50476 0,0.75425 -0.30032,1.37136 -0.66738,1.37136 -0.36705,0 -0.67756,0.37539 -0.69001,0.83421 -0.0125,0.45882 -0.6029,2.03549 -1.3121,3.50371 -0.7092,1.46821 -1.29965,3.17731 -1.3121,3.798 -0.0125,0.62068 -0.32296,1.31412 -0.69002,1.54097 -1.03456,0.63939 -0.80571,3.67055 0.27712,3.67055 1.03571,0 2.5738,-1.57873 10.48624,-10.76334 6.14644,-7.13464 7.61208,-9.04495 8.92412,-11.63165 0.73411,-1.4473 1.55998,-2.73157 1.83527,-2.85392 0.27529,-0.12235 0.50053,-0.51423 0.50053,-0.87083 0,-0.58731 1.02387,-3.07025 3.71878,-9.01815 0.52405,-1.15664 0.95282,-2.58314 0.95282,-3.17002 0,-0.58687 0.23548,-1.06704 0.52328,-1.06704 0.28781,0 1.21605,-3.07825 2.06277,-6.84056 0.84671,-3.76231 1.95021,-7.80066 2.4522,-8.97411 0.50201,-1.17346 1.11531,-3.72615 1.3629,-5.67267 0.24759,-1.94651 0.76216,-3.9324 1.14347,-4.41309 0.41218,-0.51961 0.85465,-7.69052 1.09124,-17.68536 0.37267,-15.74368 0.45757,-16.62064 1.33686,-13.8082 0.51641,1.65175 1.15271,3.30349 1.414,3.67055 0.26129,0.36705 0.69314,2.0188 0.95966,3.67054 0.26653,1.65175 0.71308,3.30349 0.99233,3.67055 0.27926,0.36705 0.72388,2.16896 0.98806,4.00423 0.26418,1.83527 0.82762,3.75833 1.25209,4.27347 1.05985,1.28625 1.08639,34.16537 0.0287,35.49917 -0.4087,0.51538 -0.94704,2.27112 -1.1963,3.90164 -0.54362,3.55615 -3.16313,12.09062 -6.25942,20.39343 -1.62297,4.35205 -6.90887,15.10095 -7.98202,16.23144 -0.46042,0.48503 -0.83714,1.18493 -0.83714,1.55533 0,0.73 -4.4409,7.68537 -5.82466,9.12262 -0.46698,0.48504 -0.84906,1.16075 -0.84906,1.50159 0,0.34083 -0.52556,1.16886 -1.1679,1.84006 -0.64235,0.67119 -1.80612,1.94754 -2.58617,2.83633 -2.77342,3.16005 -13.75449,12.67411 -19.46424,16.86392 -5.7183,4.19608 -6.26945,6.90322 -1.23912,6.08636 1.52231,-0.2472 3.05314,-0.71887 3.40184,-1.04815 0.34871,-0.32927 1.25944,-0.59868 2.02386,-0.59868 0.76441,0 4.68355,-1.64481 8.7092,-3.65515 4.02565,-2.01033 7.69475,-3.66207 8.15357,-3.67054 0.45882,-0.008 0.83422,-0.2807 0.83422,-0.60494 0,-0.32424 0.52555,-0.75621 1.1679,-0.95992 2.91196,-0.92348 11.46832,-8.0576 16.45418,-13.71915 0.76891,-0.87311 2.82453,-2.95001 4.56803,-4.61532 1.74351,-1.66532 3.17002,-3.42857 3.17002,-3.91834 0,-0.48977 0.30676,-0.8905 0.68168,-0.8905 0.37493,0 1.05064,-0.82587 1.50159,-1.83527 0.45095,-1.0094 1.49562,-2.47035 2.32149,-3.24655 0.82588,-0.7762 1.50159,-1.6535 1.50159,-1.94956 0,-0.29606 0.42185,-1.01242 0.93744,-1.59191 0.51559,-0.57948 2.20544,-3.45614 3.75522,-6.39258 1.54978,-2.93643 3.10337,-5.63929 3.45241,-6.00635 0.77809,-0.81823 -0.0492,4.3393 -0.86173,5.37209 -0.30309,0.38527 -0.75279,1.96193 -0.99933,3.5037 -0.24654,1.54178 -0.71019,2.80322 -1.03033,2.80322 -0.32014,0 -0.58208,0.37985 -0.58208,0.8441 0,0.46425 -0.60063,1.96475 -1.33474,3.33444 -0.73411,1.36969 -1.33474,2.91688 -1.33474,3.43821 0,0.52132 -0.22524,1.04796 -0.50053,1.17032 -0.27529,0.12235 -1.40148,2.02436 -2.50265,4.22669 -1.10116,2.20233 -2.22735,4.10434 -2.50264,4.22668 -0.27529,0.12236 -0.50053,0.54829 -0.50053,0.94653 0,0.67794 -8.74757,13.93739 -10.30136,15.61467 -0.39066,0.42169 -1.61123,1.90758 -2.7124,3.30198 -3.54817,4.49301 -11.52769,12.11072 -15.08907,14.4049 -0.9579,0.61706 -2.15917,1.52014 -2.66949,2.00684 -1.65993,1.5831 -12.40138,8.55024 -13.18217,8.55024 -0.41769,0 -0.75944,0.30032 -0.75944,0.66737 0,0.36706 -0.32378,0.66737 -0.71951,0.66737 -0.39573,0 -2.87335,1.00854 -5.50582,2.2412 -7.53519,3.52838 -9.17276,4.19697 -13.79583,5.63257 -8.68533,2.69706 -11.52255,3.47156 -12.71732,3.47156 -0.67029,0 -1.38242,0.26488 -1.58251,0.58863 -0.20008,0.32374 -2.31687,0.79779 -4.70397,1.05342 -2.3871,0.25564 -4.51121,0.74155 -4.72027,1.0798 -0.20905,0.33825 -1.63872,0.61762 -3.17704,0.62081 -5.4224,0.0112 -9.80434,0.80525 -9.80434,1.77653 0,0.51098 0.52555,1.10193 1.1679,1.31324 0.64234,0.2113 2.11424,0.80251 3.27087,1.31379 1.15664,0.51129 2.67324,0.92961 3.37023,0.92961 0.69699,0 1.5723,0.30505 1.94514,0.67789 0.6806,0.68059 11.23739,2.1246 15.60599,2.13466 3.64091,0.008 14.89981,-1.45353 16.04377,-2.0832 0.56535,-0.31119 2.89334,-0.7823 5.17333,-1.04692 2.27999,-0.26462 4.31278,-0.7519 4.51731,-1.08284 0.20452,-0.33094 0.91645,-0.6017 1.58204,-0.6017 1.42398,0 11.20394,-3.04083 12.88366,-4.00584 0.63736,-0.36617 1.5068,-0.66577 1.93209,-0.66577 0.99065,0 10.81319,-4.69214 11.26425,-5.38082 0.1872,-0.28584 1.16323,-0.72623 2.16896,-0.97865 1.00572,-0.25242 1.82858,-0.7267 1.82858,-1.05397 0,-0.32726 0.29716,-0.59502 0.66034,-0.59502 0.36318,0 2.39033,-1.20088 4.50476,-2.66861 4.52675,-3.14227 5.42277,-3.33747 3.83312,-0.83509 -1.57548,2.48006 -16.48882,16.82833 -17.53439,16.87001 -0.50608,0.0202 -7.9419,4.78829 -9.28786,5.95572 -0.44333,0.38452 -1.09759,0.69913 -1.45392,0.69913 -0.35633,0 -1.04472,0.37979 -1.52975,0.84398 -1.40152,1.34129 -11.8718,6.32666 -15.89776,7.56964 -2.0188,0.6233 -3.97086,1.34859 -4.33792,1.61177 -0.36705,0.26319 -1.86864,0.69471 -3.33686,0.95895 -1.46821,0.26423 -2.99166,0.74647 -3.38542,1.07163 -0.39377,0.32517 -2.34583,0.63885 -4.33792,0.69708 -1.99209,0.0582 -4.97341,0.56081 -6.62515,1.11683 -2.40459,0.80947 -6.99373,1.0195 -23.02434,1.05377 -22.75166,0.0487 -24.94056,-0.0203 -25.96021,-0.81802 -0.40407,-0.31611 -2.34313,-0.7558 -4.30903,-0.97708 -1.9659,-0.22128 -3.91796,-0.66661 -4.33792,-0.98962 -1.23066,-0.94654 -15.15329,-5.64643 -15.55036,-5.24936 -0.86939,0.86938 1.35691,5.09876 3.6286,6.89338 3.61931,2.85926 10.68518,7.17878 14.50844,8.86934 1.82792,0.80826 4.26983,1.89834 5.42646,2.42239 1.15664,0.52405 2.43707,0.95283 2.84539,0.95283 0.40833,0 1.26389,0.28199 1.90126,0.62664 5.49968,2.97394 37.65183,6.61187 41.2791,4.67062 0.82525,-0.44166 1.91172,-0.64519 2.41439,-0.4523 1.41886,0.54447 13.05672,-0.70498 17.64133,-1.89399 4.94496,-1.28246 7.6745,-1.02753 4.5591,0.42579 -1.10116,0.51369 -2.15227,1.1021 -2.3358,1.30759 -0.47768,0.53481 -7.74829,3.63041 -11.67901,4.97256 -1.83527,0.62665 -3.81827,1.38805 -4.40667,1.69198 -0.5884,0.30393 -2.54046,0.76566 -4.33792,1.02607 -1.79746,0.26041 -3.56842,0.70952 -3.93547,0.99803 -2.14004,1.68207 -33.47069,3.53066 -35.26589,2.08077 -0.42471,-0.34301 -3.24982,-0.83836 -6.27802,-1.10077 -3.0282,-0.26241 -5.50582,-0.72776 -5.50582,-1.03412 0,-0.30636 -1.42651,-0.76346 -3.17002,-1.01578 -1.74351,-0.25232 -3.47033,-0.67825 -3.83739,-0.9465 -0.36705,-0.26825 -3.22007,-1.29174 -6.34003,-2.27442 -5.46768,-1.72212 -9.0791,-3.11584 -11.48791,-4.43341 -0.629,-0.34405 -4.08265,-2.1534 -7.67478,-4.02079 -3.59212,-1.86738 -7.00525,-3.82372 -7.58474,-4.34741 -0.57948,-0.5237 -1.35929,-0.95217 -1.7329,-0.95217 -0.3736,0 -1.79453,-1.0831 -3.15759,-2.4069 -1.36307,-1.32379 -2.64193,-2.24328 -2.84191,-2.0433 -0.19998,0.19997 -1.06747,-0.39591 -1.92777,-1.32418 -0.86029,-0.92828 -1.87988,-1.49265 -2.26576,-1.25417 -0.38587,0.23848 -0.70159,0.1358 -0.70159,-0.22818 0,-0.36398 -0.52555,-0.83609 -1.1679,-1.04915 -0.64234,-0.21304 -2.36917,-1.45792 -3.83739,-2.76641 -1.46822,-1.30848 -3.7206,-3.16441 -5.00529,-4.1243 -1.28469,-0.95988 -2.63612,-2.06268 -3.00317,-2.45069 -2.11468,-2.23534 -7.09917,-5.7328 -7.66865,-5.38084 -0.61459,0.37983 0.82999,4.1266 1.93127,5.00908 0.22904,0.18353 1.61364,2.13559 3.0769,4.33792 1.46327,2.20232 2.88572,4.10433 3.16101,4.22668 0.27529,0.12236 0.50053,0.94823 0.50053,1.83528 0,0.91902 0.39248,1.61281 0.91237,1.61281 0.50181,0 1.75688,1.27635 2.78905,2.83634 2.81433,4.25344 14.73042,15.79649 21.42481,20.7541 3.24861,2.40579 6.22394,4.64675 6.61184,4.97991 0.3879,0.33316 2.0388,1.32383 3.66867,2.20148 1.62988,0.87764 3.11441,1.74993 3.29896,1.9384 0.18456,0.18848 3.18857,1.75802 6.67559,3.48788 6.74512,3.34616 12.76992,5.52477 17.26703,6.24389 1.51478,0.24222 2.75413,0.66891 2.75413,0.94821 0,0.27929 1.12619,0.71826 2.50265,0.97548 1.37645,0.25722 2.80296,0.70881 3.17001,1.00352 0.36706,0.29471 1.26801,0.68347 2.00212,0.86392 0.90778,0.22313 0.66761,0.35284 -0.75079,0.4055 -1.14705,0.0426 -2.94895,0.19671 -4.00424,0.34252 -1.05528,0.14581 -5.37234,-0.13731 -9.59347,-0.62916 z"
           id="path4"
           transform="matrix(9524.9889,0,0,9524.9889,-1023732.6,-2302100.7)" />
        <path
           style="fill:#2b0000;stroke-width:0.667372"
           d="m 188.25327,615.73863 c -0.19695,-0.31868 -1.86642,-0.7795 -3.70994,-1.02405 -1.84351,-0.24455 -3.35183,-0.73461 -3.35183,-1.08902 0,-0.35441 -0.91789,-0.64439 -2.03974,-0.64439 -2.03805,0 -5.54267,-2.96123 -6.30168,-5.32461 -0.17936,-0.55848 -1.69074,-1.57541 -3.35863,-2.25985 -3.21911,-1.32099 -5.40366,-3.23531 -9.47454,-8.30248 -1.38442,-1.72324 -2.66728,-3.28332 -2.85081,-3.46685 -0.62236,-0.62236 -1.99267,-2.99035 -4.05505,-7.0074 -2.84972,-5.55061 -4.21061,-7.9503 -4.73471,-8.34884 -0.24619,-0.1872 -0.663,-1.23831 -0.92624,-2.3358 -0.26324,-1.09749 -0.71065,-2.29575 -0.99425,-2.6628 -0.2836,-0.36706 -0.72609,-1.79356 -0.98331,-3.17002 -0.25722,-1.37645 -0.70047,-2.50264 -0.985,-2.50264 -0.28453,0 -0.71998,-1.35143 -0.96768,-3.00318 -0.24769,-1.65174 -0.71066,-3.00317 -1.02881,-3.00317 -0.31815,0 -0.78787,-1.72683 -1.04382,-3.83739 -0.25595,-2.11056 -0.7557,-4.3949 -1.11056,-5.0763 -1.58896,-3.05109 -1.77097,-25.81997 -0.25686,-32.12969 0.17617,-0.73411 0.66553,-3.13665 1.08748,-5.33897 0.42195,-2.20233 1.07059,-4.64048 1.44142,-5.4181 1.18461,-2.48413 0.44343,-3.90728 -2.13237,-4.09438 -7.96305,-0.57842 -10.96652,-2.13509 -11.75835,-6.09426 -0.2317,-1.15852 -0.68281,-2.26803 -1.00245,-2.46558 -0.31965,-0.19755 -0.58118,-3.16991 -0.58118,-6.60525 0,-7.73267 -0.2218,-8.35735 -2.96745,-8.35735 -1.69324,0 -2.34825,0.39477 -3.04512,1.83528 -0.71309,1.47402 -0.94085,1.60539 -1.15712,0.66737 -0.1481,-0.64235 -0.54756,-1.1679 -0.8877,-1.1679 -1.35683,0 -0.59385,-4.37808 1.077,-6.18002 1.37894,-1.48713 2.27396,-1.82845 4.79458,-1.82845 5.08887,0 9.95872,2.95065 14.69904,8.90617 1.33148,1.67282 1.06883,8.02631 -0.38624,9.34313 -1.62251,1.46835 -2.50638,1.39248 -3.70443,-0.31799 -0.60783,-0.86779 -1.4033,-1.26632 -2.03996,-1.022 -1.49827,0.57494 -1.35935,5.66582 0.21031,7.70719 1.08886,1.41607 1.62728,1.55873 4.86839,1.28996 3.98667,-0.33061 6.19734,-1.88117 6.94839,-4.87357 0.23353,-0.93044 0.69164,-1.85675 1.01803,-2.05848 0.3264,-0.20172 0.59344,-2.57371 0.59344,-5.27108 0,-3.96864 -0.32831,-5.53712 -1.72085,-8.22117 -2.34707,-4.5239 -6.665,-8.76535 -11.39122,-11.1895 -2.96178,-1.51914 -3.02699,-1.56488 -6.78109,-4.75686 -1.58134,-1.34457 -3.30817,-3.48098 -3.83739,-4.74757 -1.30335,-3.11938 -1.25576,-11.35698 0.0811,-14.03679 1.54863,-3.10431 2.08718,-3.07607 2.44836,0.12835 0.48975,4.34501 4.08439,9.41996 7.6319,10.77476 1.57135,0.6001 3.54041,0.99412 4.3757,0.8756 1.41841,-0.20128 1.52335,-0.54604 1.58903,-5.2208 0.0711,-5.0609 1.95474,-16.45621 2.92338,-17.68535 0.28926,-0.36706 0.73617,-1.94215 0.99314,-3.50021 0.25697,-1.55806 0.70735,-2.98125 1.00086,-3.16264 0.29351,-0.1814 0.74472,-1.45932 1.00271,-2.83983 0.25798,-1.38051 0.69359,-2.81034 0.96801,-3.17739 0.52112,-0.69702 2.64292,-6.67175 4.07471,-11.47391 0.85079,-2.8535 0.37325,-4.68393 -2.1728,-8.32858 -0.97783,-1.39975 0.22537,-4.41444 1.97869,-4.95772 0.64552,-0.20002 1.69515,-0.64207 2.33252,-0.98233 0.63736,-0.34026 1.5865,-0.61865 2.10919,-0.61865 0.52269,0 4.80629,-4.09019 9.51911,-9.0893 4.71281,-4.99911 12.24764,-12.79311 16.74406,-17.31998 4.49642,-4.52688 8.17531,-8.66089 8.17531,-9.18668 0,-1.03303 -2.75079,-3.10437 -4.1476,-3.12315 -1.17674,-0.0158 -3.86086,-2.9456 -3.86086,-4.21422 0,-0.56895 -0.30032,-1.22006 -0.66738,-1.44691 -0.8267,-0.51093 -0.89052,-4.33792 -0.0724,-4.33792 0.32727,0 0.78989,-0.77639 1.02805,-1.72531 0.23817,-0.94892 1.21553,-2.45051 2.17192,-3.33686 1.41308,-1.3096 2.44738,-1.61155 5.52016,-1.61155 3.41607,0 3.92231,0.19076 5.24153,1.97509 1.81674,2.45727 1.83394,3.4862 0.0848,5.06919 -1.09488,0.99085 -1.48664,1.06495 -1.92031,0.36324 -0.29966,-0.48485 -0.39287,-1.46268 -0.20713,-2.17294 0.36417,-1.39261 -1.42376,-3.17496 -3.2213,-3.21124 -1.97132,-0.0398 -3.95372,2.87472 -3.95372,5.81271 0,2.35713 0.35131,3.03431 2.48785,4.79543 2.03118,1.67427 3.09048,2.0507 5.77078,2.0507 2.77576,0 3.73169,-0.36774 6.18798,-2.38048 2.86761,-2.3498 2.90468,-2.43367 2.87577,-6.50688 -0.0161,-2.26951 -0.46207,-5.32766 -0.99102,-6.79588 -0.52894,-1.46822 -0.96623,-2.74456 -0.97176,-2.83633 -0.043,-0.71482 2.90547,0.0792 3.86786,1.04158 3.72975,3.72975 4.31717,6.97676 2.37614,13.13441 -0.85331,2.70703 -1.49904,3.60401 -3.00317,4.17176 -1.05388,0.39779 -1.91613,1.19982 -1.91613,1.78228 0,0.83694 0.75899,1.05903 3.61921,1.05903 3.18641,0 3.87616,-0.25696 5.76799,-2.14879 2.7943,-2.79429 3.96024,-5.69203 3.96024,-9.84247 0,-3.3121 0.96308,-4.47917 1.80753,-2.19039 0.237,0.64234 0.71075,1.35599 1.0528,1.58589 0.34203,0.22989 0.77508,1.77717 0.96232,3.4384 0.38817,3.44386 -1.46556,7.94169 -4.43044,10.74983 -1.98986,1.88466 -9.35775,4.0585 -10.35971,3.05654 -0.35463,-0.35463 -2.24242,-0.64478 -4.19511,-0.64478 -5.59176,0 -7.77672,1.82874 -25.88077,21.6613 -6.94928,7.61277 -8.26868,8.95944 -12.78686,13.05111 -5.79506,5.24803 -5.82368,5.3358 -5.2938,16.23509 0.2544,5.23271 0.63954,10.70081 0.85587,12.15134 0.82583,5.5374 0.40756,19.95525 -0.73432,25.31134 -0.62407,2.9273 -1.38069,5.47999 -1.68136,5.67266 -0.30068,0.19267 -0.75844,1.32633 -1.01725,2.51926 -0.2588,1.19293 -0.74701,2.16896 -1.0849,2.16896 -1.24984,0 -0.55793,1.93111 1.23412,3.44438 2.42903,2.05116 6.82737,7.84785 6.82737,8.99797 0,0.4978 0.26194,0.90509 0.58208,0.90509 0.32014,0 0.78379,1.26144 1.03033,2.80322 0.24654,1.54177 0.81048,3.23967 1.2532,3.77312 1.06173,1.27931 1.11609,18.18592 0.0627,19.51544 -0.40821,0.51523 -0.95385,1.81988 -1.21253,2.89921 -0.7711,3.21733 -5.53859,8.94825 -9.47107,11.38501 -4.09065,2.53478 -5.10469,4.70153 -7.02743,15.01587 -0.83034,4.45429 -0.4086,20.92639 0.56707,22.14808 0.38488,0.48194 0.90519,2.29576 1.15622,4.03072 0.25104,1.73495 0.71327,3.31319 1.02718,3.5072 0.31391,0.194 0.77343,1.55243 1.02116,3.01873 0.24773,1.46629 0.69178,2.66599 0.98678,2.66599 0.295,0 0.74288,0.82286 0.9953,1.82858 0.25243,1.00573 0.66038,1.98176 0.90657,2.16896 0.24619,0.18721 1.04825,1.53437 1.78236,2.99368 1.73162,3.44225 5.9714,7.69096 7.67478,7.69096 0.73411,0 1.33474,0.26194 1.33474,0.58208 0,0.32014 1.22896,0.77859 2.73102,1.01878 2.20737,0.35297 3.55098,1.26887 7.00741,4.77672 2.35201,2.38701 4.27638,4.78157 4.27638,5.32125 0,0.53968 0.27646,0.98124 0.61435,0.98124 0.33789,0 0.81223,0.90095 1.05408,2.00212 0.24186,1.10116 0.68364,2.00211 0.98174,2.00211 0.2981,0 0.74468,0.80756 0.9924,1.79457 0.24773,0.98701 1.03108,2.61003 1.74078,3.60673 0.70971,0.99668 1.29037,2.11616 1.29037,2.48773 0,0.37157 0.22524,0.77568 0.50053,0.89804 0.57462,0.25538 3.5037,4.32421 3.5037,4.86704 0,0.19839 -0.45047,0.3607 -1.00105,0.3607 -0.55058,0 -1.00106,-0.28671 -1.00106,-0.63713 0,-0.35042 -1.04041,-0.83231 -2.31203,-1.07086 -1.27161,-0.23856 -2.65981,-0.85281 -3.08489,-1.36499 -0.42507,-0.51219 -1.06144,-0.93125 -1.41416,-0.93125 -0.35271,0 -1.66206,-1.05111 -2.90966,-2.3358 -1.24761,-1.28469 -2.574,-2.3358 -2.94754,-2.3358 -1.57444,0 -0.47886,2.75308 2.18722,5.49627 2.97754,3.06367 6.23336,4.85266 12.48317,6.85917 4.56345,1.46511 5.61603,2.32674 2.84236,2.32674 -1.15292,0 -2.25735,-0.26073 -2.4543,-0.5794 z"
           id="path5"
           transform="matrix(9524.9889,0,0,9524.9889,-1023732.6,-2302100.7)" />
        <path
           style="fill:#2b0000;stroke-width:0.667372"
           d="m 486.51418,349.84711 c -7.72169,-4.50304 -8.38519,-5.73487 -8.96986,-16.6531 l -0.41946,-7.83307 -2.61222,-2.67516 c -1.43672,-1.47134 -3.22826,-2.86775 -3.98118,-3.10315 -1.44284,-0.45109 -5.71933,-3.25756 -8.14727,-5.34668 -0.79164,-0.68117 -1.99291,-1.6196 -2.66949,-2.08541 -7.97025,-5.48733 -10.71204,-7.72996 -18.54652,-15.17 -6.60745,-6.27479 -8.34299,-7.67478 -9.51424,-7.67478 -0.47593,0 -0.86532,-0.27832 -0.86532,-0.6185 0,-1.69724 -7.38317,-3.60266 -8.28783,-2.13888 -0.19698,0.31871 -2.15762,0.78307 -4.35698,1.0319 -2.19936,0.24882 -4.16287,0.71783 -4.36337,1.04224 -0.20049,0.3244 -2.08662,0.79806 -4.1914,1.05256 -2.10478,0.25451 -4.14725,0.71712 -4.53883,1.02802 -1.18963,0.94454 -19.54646,2.1254 -26.56562,1.70893 -4.21476,-0.25008 -7.15218,-0.75994 -8.15183,-1.41493 -0.85952,-0.56318 -1.73012,-1.02397 -1.93464,-1.02397 -0.20452,0 -1.23594,1.36251 -2.29204,3.02779 -1.79808,2.83528 -3.59509,4.74364 -8.57952,9.11107 -1.12646,0.98703 -3.64792,2.48862 -5.60325,3.33686 -3.13783,1.36123 -4.57349,1.53669 -12.23097,1.49479 -7.70051,-0.0421 -9.01051,-0.22053 -11.65291,-1.58695 -3.06755,-1.58627 -9.36931,-7.36327 -9.36931,-8.58911 0,-1.15633 -4.77931,-4.71075 -6.96015,-5.17632 -1.12715,-0.24063 -2.47137,-0.77823 -2.98715,-1.19467 -1.33872,-1.08086 -26.24388,-0.96523 -26.6068,0.12354 -0.14442,0.43326 -1.13731,0.78774 -2.20643,0.78774 -2.55287,0 -8.94165,2.2395 -14.48013,5.0758 -5.21371,2.66998 -10.01261,6.99791 -10.5368,9.50268 -0.20398,0.97468 -0.6325,2.26072 -0.95228,2.85788 -0.31977,0.59716 -0.78553,2.17382 -1.03502,3.5037 -0.24948,1.32988 -0.7205,2.41796 -1.04671,2.41796 -0.3262,0 -0.5931,0.40964 -0.5931,0.9103 0,0.50066 -1.20127,1.74277 -2.66948,2.76025 -1.46822,1.01747 -2.66949,2.0744 -2.66949,2.34873 0,0.27432 -0.52556,0.67524 -1.1679,0.89092 -0.64235,0.21568 -1.61838,0.6962 -2.16896,1.06781 -0.55058,0.37162 -2.57773,1.33757 -4.50476,2.14655 -1.92704,0.80898 -3.50371,1.71492 -3.50371,2.0132 0,0.29827 -0.42902,0.54231 -0.95338,0.54231 -0.52437,0 -1.43849,0.4851 -2.03139,1.078 -0.99242,0.99242 -1.17398,0.99114 -2.28696,-0.0161 -1.60019,-1.44814 -3.12649,-0.77065 -4.11804,1.82792 -0.62152,1.62884 -0.8752,1.83943 -1.1028,0.9155 -0.16258,-0.65998 -0.0115,-1.56093 0.33578,-2.00212 0.34725,-0.44118 0.82817,-2.09161 1.06871,-3.66763 0.24054,-1.57602 0.73188,-3.37792 1.09188,-4.00423 0.35999,-0.62632 0.94628,-1.96129 1.30285,-2.9666 0.35658,-1.00531 1.82479,-2.65706 3.2627,-3.67055 2.02102,-1.42448 2.69036,-2.39405 2.94917,-4.272 0.18414,-1.33612 0.97288,-3.06738 1.75276,-3.84726 2.41782,-2.41782 13.65402,-10.74142 14.50006,-10.74142 0.44096,0 0.90184,-0.2373 1.02419,-0.52733 0.40359,-0.9567 18.1892,-9.40958 20.74415,-9.85897 1.37645,-0.24211 2.50264,-0.67249 2.50264,-0.9564 0,-0.28391 1.72683,-0.72991 3.83739,-0.99111 2.11057,-0.26119 4.14439,-0.72627 4.51961,-1.03352 0.37521,-0.30724 4.87997,-0.75802 10.01058,-1.00173 5.1306,-0.24371 10.13385,-0.51279 11.11833,-0.59796 2.85997,-0.24741 10.63277,0.85215 11.57981,1.63811 0.47623,0.39524 2.15885,0.778 3.73916,0.85057 l 2.87328,0.13196 0.57042,-3.97443 c 0.57535,-4.00887 2.63505,-7.03721 4.78627,-7.03721 0.50108,0 1.02186,-0.33244 1.1573,-0.73874 0.13544,-0.40631 2.18761,-0.98637 4.56038,-1.28901 8.569,-1.09298 9.98679,-1.75254 9.98679,-4.64597 0,-2.34198 -1.4973,-3.58897 -3.78443,-3.15175 -0.98751,0.18877 -2.16175,-0.0296 -2.61926,-0.48712 -0.6608,-0.6608 -0.48224,-1.20357 0.87894,-2.67153 1.44514,-1.55852 2.0792,-1.78332 4.11701,-1.45965 2.51245,0.39907 6.07934,3.59364 6.07934,5.44477 0,0.5448 0.30032,0.99053 0.66737,0.99053 0.39548,0 0.66738,2.44703 0.66738,6.00635 0,3.55932 -0.2719,6.00635 -0.66738,6.00635 -0.36705,0 -0.66737,0.3836 -0.66737,0.85244 0,0.46885 -0.93183,1.67012 -2.07074,2.66949 -2.36049,2.07129 -6.54143,2.50097 -7.93984,0.81599 -0.69139,-0.83308 -0.60683,-1.00106 0.50394,-1.00106 2.13386,0 2.95123,-1.47487 1.9883,-3.58772 -0.78148,-1.71472 -0.99528,-1.78502 -4.16067,-1.36809 -1.83527,0.24174 -3.43696,0.70489 -3.55931,1.02924 -0.12236,0.32434 -0.64791,0.58971 -1.1679,0.58971 -1.74596,0 -1.53212,7.69638 0.26024,9.36621 1.33594,1.24461 7.04187,3.31854 9.09062,3.30415 3.87499,-0.0272 11.72697,-4.28853 11.72697,-6.36429 0,-0.5319 0.29459,-0.96709 0.65465,-0.96709 0.36007,0 0.85195,-0.82588 1.09309,-1.83528 0.24112,-1.0094 0.67073,-2.13559 0.95466,-2.50264 0.28393,-0.36706 0.82176,-2.16896 1.19519,-4.00423 1.12272,-5.51787 2.25313,-9.28521 3.10385,-10.34427 0.44228,-0.55058 0.97833,-1.49484 1.19123,-2.09835 0.2129,-0.60352 1.51264,-1.95495 2.88832,-3.00318 2.35066,-1.79115 2.87854,-1.90384 8.76915,-1.87201 3.87117,0.0209 6.44455,0.31968 6.72985,0.78131 0.25407,0.41109 1.28481,0.95396 2.29053,1.20638 2.97876,0.74762 2.10559,1.43849 -2.32594,1.84033 -2.28498,0.20719 -4.26207,0.69938 -4.39353,1.09375 -0.13146,0.39436 -0.61791,0.71703 -1.08102,0.71703 -1.04457,0 -3.05099,2.1506 -3.05099,3.27023 0,0.45614 -0.45048,1.27981 -1.00106,1.83039 -0.63915,0.63915 -1.00106,2.28571 -1.00106,4.55446 v 3.55339 l 9.51005,-0.34278 c 8.03045,-0.28945 10.39263,-0.13365 15.18272,1.00138 3.11996,0.73929 7.24899,1.55358 9.17561,1.80953 1.92663,0.25595 3.66046,0.7202 3.85295,1.03166 0.1925,0.31146 1.69811,0.76845 3.34582,1.01554 1.6477,0.24709 3.16001,0.71492 3.36068,1.03962 0.20068,0.3247 2.42757,0.59036 4.94865,0.59036 3.94695,0 4.75337,-0.20862 5.80448,-1.50158 2.42741,-2.98596 3.29377,-3.35736 5.85775,-2.51117 1.2989,0.42867 2.36163,1.14928 2.36163,1.60135 0,1.36847 7.85558,9.91857 14.11746,15.3656 1.22823,1.0684 5.53665,4.50584 9.57425,7.63875 4.0376,3.13291 7.58125,6.08781 7.87478,6.56644 0.29353,0.47863 0.94422,0.87024 1.44598,0.87024 0.50175,0 1.01238,0.22523 1.13474,0.50053 0.37938,0.85361 6.41423,5.50581 7.14217,5.50581 0.3788,0 0.9289,0.40718 1.22243,0.90484 0.93364,1.58293 5.50983,3.3955 6.37877,2.52655 0.41904,-0.41904 1.28102,-0.7619 1.9155,-0.7619 0.63448,0 1.615,-0.4614 2.17894,-1.02534 1.89752,-1.89752 5.33489,-2.93273 7.78951,-2.34593 3.4814,0.83226 4.62793,1.42534 4.62793,2.39395 0,0.48509 0.39617,1.27883 0.88039,1.76387 1.70581,1.70871 1.79409,4.06254 0.26704,7.12017 -1.71499,3.43394 -3.64123,4.60413 -5.73462,3.48379 -1.93116,-1.03353 -1.99066,-4.69229 -0.0844,-5.19079 1.65645,-0.43317 1.87023,-3.84931 0.27911,-4.45989 -5.02849,-1.92961 -9.46356,3.81103 -7.88018,10.1999 0.45341,1.82945 1.38205,2.91992 3.93053,4.61539 3.06323,2.03794 3.63576,2.18714 6.98188,1.81952 2.00477,-0.22026 3.80667,-0.62173 4.00424,-0.89215 0.61232,-0.83812 4.02975,-2.13711 4.02975,-1.53172 0,0.31492 -1.20094,1.81007 -2.66875,3.32255 -2.414,2.48747 -2.98216,2.74996 -5.95226,2.74996 -4.03068,0 -6.403,-1.29594 -9.31417,-5.08813 -1.228,-1.59963 -2.50003,-2.74321 -2.82672,-2.5413 -1.09023,0.67379 -0.64211,6.54207 0.64911,8.5004 1.56408,2.37215 3.15439,3.48007 6.83509,4.76181 3.40307,1.18506 5.68475,1.32099 6.27029,0.37357 0.22685,-0.36706 0.73183,-0.66738 1.12216,-0.66738 1.10511,0 -0.80759,1.99745 -3.60175,3.76132 -2.67712,1.69 -6.03078,1.98484 -8.19836,0.72079 z"
           id="path6"
           transform="matrix(9524.9889,0,0,9524.9889,-1023732.6,-2302100.7)" />
        <path
           style="fill:#2b0000;stroke-width:0.667372"
           d="m 487.51524,637.07714 c 0,-0.32824 -0.90095,-1.56127 -2.00212,-2.74006 -1.74316,-1.86606 -2.00211,-2.63879 -2.00211,-5.9744 0,-5.52481 1.71731,-8.7027 6.29143,-11.6423 1.66858,-1.07232 3.12892,-1.23801 10.01184,-1.13592 l 8.05831,0.11953 2.33455,-2.82431 c 1.284,-1.55337 2.80676,-3.29219 3.38392,-3.86405 0.57715,-0.57186 1.76854,-2.09086 2.64752,-3.37555 0.87899,-1.28469 1.90836,-2.6744 2.28749,-3.08824 0.37914,-0.41385 1.13981,-1.41792 1.6904,-2.23128 3.14006,-4.6387 8.12423,-10.10324 18.90389,-20.72583 7.30356,-7.19714 7.45609,-7.53682 7.29422,-16.24284 -0.0742,-3.98813 -0.40324,-7.59194 -0.73129,-8.00846 -0.70614,-0.89656 -1.20576,-4.59402 -2.0824,-15.41084 -0.85659,-10.56948 0.45191,-20.30631 3.36516,-25.04096 1.95881,-3.18346 2.54698,-6.02049 1.24817,-6.02049 -1.4911,0 -6.85637,-6.90985 -8.80926,-11.34532 -2.09402,-4.756 -3.17157,-9.37673 -3.17157,-13.6003 0,-2.38699 0.26628,-4.50454 0.59172,-4.70568 0.32544,-0.20113 0.78409,-1.39113 1.01921,-2.64443 0.23512,-1.25331 0.8698,-2.44847 1.4104,-2.65591 0.5406,-0.20746 0.98291,-0.69493 0.98291,-1.08329 0,-0.84295 2.57853,-3.76916 9.37216,-10.63585 6.80277,-6.87593 7.53446,-9.16876 7.45418,-23.3582 -0.0323,-5.71414 -0.35871,-11.74077 -0.72528,-13.39252 -1.41023,-6.35432 -2.18558,-9.03248 -2.7919,-9.64352 -0.346,-0.3487 -0.6291,-1.06798 -0.6291,-1.5984 0,-1.45349 -4.66517,-10.9992 -5.82291,-11.91464 -0.55618,-0.43978 -2.41197,-2.12581 -4.12398,-3.74674 -1.71201,-1.62093 -3.85321,-3.17857 -4.75823,-3.46143 -0.90502,-0.28285 -1.79565,-0.71489 -1.97918,-0.96009 -0.18352,-0.24519 -1.53495,-1.16538 -3.00317,-2.04486 -2.98254,-1.78657 -5.02301,-3.87386 -7.17541,-7.34001 -0.79776,-1.28469 -1.76203,-2.6582 -2.14282,-3.05224 -0.38079,-0.39404 -1.2862,-1.82055 -2.01201,-3.17002 -0.72582,-1.34946 -1.55169,-2.45357 -1.83528,-2.45357 -0.28358,0 -0.51561,-0.40998 -0.51561,-0.91106 0,-0.50108 -0.60063,-1.67464 -1.33474,-2.60791 -1.9785,-2.51526 -1.73591,-3.21251 0.83421,-2.39765 1.19293,0.37822 2.82442,1.00313 3.62553,1.3887 1.61356,0.7766 3.54872,0.31167 3.54872,-0.85259 0,-0.41294 -0.60063,-0.90787 -1.33474,-1.09984 -0.73411,-0.19198 -1.33474,-0.61434 -1.33474,-0.93858 0,-0.32425 -0.31892,-0.58954 -0.7087,-0.58954 -1.43205,0 -7.98197,-3.46609 -8.82537,-4.67021 -0.47844,-0.68307 -1.68517,-1.44656 -2.68162,-1.69665 -3.31518,-0.83206 -2.5957,-1.6416 1.45896,-1.6416 2.20233,0 4.1688,0.26627 4.36993,0.59171 0.20114,0.32545 1.39057,0.78399 2.64317,1.01898 3.67186,0.68884 11.08472,4.85153 11.08472,6.22462 0,0.47432 0.80872,0.84052 1.8562,0.84052 1.31494,0 2.87176,0.96864 5.33897,3.32187 1.91553,1.82703 3.48278,3.58239 3.48278,3.9008 0,0.31841 0.60063,1.1225 1.33474,1.78686 0.73411,0.66436 1.33475,1.61185 1.33475,2.10555 0,0.49369 0.26388,0.89762 0.5864,0.89762 0.32253,0 0.95274,0.97603 1.40047,2.16896 0.44773,1.19293 1.53527,3.67486 2.41676,5.5154 0.88149,1.84054 1.60271,3.67098 1.60271,4.06764 0,0.39666 0.60064,1.26477 1.33475,1.92913 0.73411,0.66436 1.33474,1.76201 1.33474,2.43923 0,0.67722 0.28671,1.23131 0.63714,1.23131 0.35041,0 0.83432,1.05111 1.07533,2.3358 0.241,1.28469 0.68123,2.33581 0.97827,2.33581 0.29704,0 0.73158,0.97603 0.96565,2.16895 0.23407,1.19293 0.69495,2.7696 1.02417,3.50371 1.91497,4.27003 2.92588,7.11277 3.79715,10.67795 1.10894,4.53768 3.00865,17.66485 2.99395,20.68853 -0.0197,4.04491 -1.48757,15.91283 -2.05584,16.62129 -0.32222,0.40171 -0.80537,1.78149 -1.07367,3.06618 -0.26829,1.2847 -0.78698,2.70731 -1.15264,3.16135 -0.36566,0.45406 -0.48534,1.54072 -0.26596,2.41481 0.32587,1.29838 0.93434,1.6496 3.32462,1.91902 3.769,0.42482 8.92518,3.92266 10.16835,6.89799 0.68289,1.63438 0.81835,3.79127 0.51049,8.12836 -0.41467,5.84201 -0.40069,5.91568 1.33967,7.056 1.63552,1.07163 1.87558,1.07578 3.42714,0.0592 1.1415,-0.74794 1.66843,-1.70127 1.66843,-3.01856 0,-1.05895 0.23358,-1.92536 0.51906,-1.92536 1.11976,0 2.8178,2.78558 2.8178,4.62251 0,2.43281 -5.08465,7.15679 -8.36572,7.77233 -2.23665,0.41959 -6.37236,-0.17363 -6.98383,-1.00175 -0.18353,-0.24855 -1.4279,-1.1165 -2.76528,-1.92879 -2.8585,-1.73617 -4.57581,-4.96282 -4.57581,-8.59747 0,-3.52911 2.11872,-5.71453 2.84555,-2.93513 0.45835,1.75272 2.50032,2.70135 4.3287,2.01094 2.30445,-0.87017 2.11039,-5.14917 -0.33369,-7.35757 -3.31529,-2.9956 -4.8776,-3.4574 -7.70294,-2.2769 -4.84651,2.025 -5.47766,3.21861 -5.47766,10.3592 0,10.06431 2.47666,13.7586 12.79042,19.07875 6.97013,3.59541 10.22154,5.69717 10.23347,6.61507 0.005,0.36706 0.52004,1.56833 1.14505,2.66949 1.35932,2.3949 1.58496,12.55325 0.30722,13.831 -0.43145,0.43145 -0.80432,1.4001 -0.8286,2.15256 -0.0243,0.75246 -0.56481,-0.2248 -1.20117,-2.17169 -1.92113,-5.87745 -7.92892,-10.93205 -13.77055,-11.58572 l -2.00212,-0.22403 -0.37561,10.34426 c -0.35914,9.89069 -2.03933,22.15139 -3.24115,23.65138 -0.31187,0.38924 -0.78654,1.75881 -1.05484,3.0435 -0.2683,1.28469 -0.78091,2.69998 -1.13915,3.14508 -0.35823,0.44511 -0.81405,2.6038 -1.01293,4.79709 -0.29702,3.27551 -0.0992,4.49124 1.10743,6.80622 1.54313,2.96055 1.4295,5.94014 -0.22653,5.94014 -2.19721,0 -5.38923,2.40896 -8.19215,6.18247 -0.80017,1.07725 -4.7043,5.30802 -8.67583,9.4017 -3.97154,4.09369 -8.34912,8.79384 -9.72796,10.44479 -10.3442,12.38558 -15.68663,20.67029 -13.3431,20.69164 0.27529,0.003 1.19319,1.02186 2.03978,2.26523 2.01777,2.96345 2.22623,8.87067 0.36107,10.23168 -0.67812,0.49483 -1.91095,1.48824 -2.73961,2.20757 -2.79061,2.42244 -8.83761,1.2679 -8.83761,-1.68734 0,-0.49378 -0.34637,-1.01323 -0.76972,-1.15435 -1.00026,-0.33342 1.23933,-3.85888 2.4514,-3.85888 0.61517,0 0.76131,0.74179 0.51212,2.5996 -0.29836,2.22446 -0.14467,2.66435 1.06502,3.04829 1.69386,0.53761 5.37924,-1.82788 5.49089,-3.52438 0.29319,-4.45494 -0.78247,-6.15458 -4.71686,-7.45305 -2.28096,-0.75278 -2.93781,-0.71515 -5.05524,0.28964 -1.3385,0.63516 -3.00054,1.72174 -3.69341,2.41461 -1.65814,1.65814 -3.30888,5.66954 -2.63062,6.39255 0.92259,0.98346 1.53875,6.24332 0.73136,6.24332 -1.15185,0 -3.32194,-2.47764 -3.78458,-4.32094 -0.23265,-0.92698 -0.69077,-1.68541 -1.01803,-1.68541 -0.32726,0 -0.59502,-1.35143 -0.59502,-3.00318 0,-1.65174 0.30032,-3.00317 0.66737,-3.00317 0.36705,0 0.66737,-0.43991 0.66737,-0.97758 0,-0.53767 0.60064,-1.29903 1.33475,-1.69191 1.93496,-1.03556 1.75744,-3.33686 -0.2574,-3.33686 -3.2372,0 -7.75107,3.55729 -7.75107,6.10846 0,0.67795 -0.30032,1.23263 -0.66737,1.23263 -0.37003,0 -0.66737,1.76653 -0.66737,3.96485 0,2.18066 0.30032,4.15045 0.66737,4.3773 0.36705,0.22686 0.66737,0.84522 0.66737,1.37414 0,0.52891 -0.30032,0.96167 -0.66737,0.96167 -0.36705,0 -0.66737,-0.26856 -0.66737,-0.5968 z"
           id="path7"
           transform="matrix(9524.9889,0,0,9524.9889,-1023732.6,-2302100.7)" />
        <path
           style="fill:#2b0000;stroke-width:0.667372"
           d=""
           id="path8"
           transform="matrix(9524.9889,0,0,9524.9889,-1023732.6,-2302100.7)" />
        <path
           style="fill:#2b0000;stroke-width:0.667372"
           d="m 346.36606,716.92913 c -1.10116,-0.3781 -2.36332,-0.78175 -2.80478,-0.89701 -2.03946,-0.53246 -4.53143,-8.92442 -2.94181,-9.90686 0.32639,-0.20173 0.7917,-1.15668 1.03401,-2.12212 0.2423,-0.96545 0.80113,-2.13276 1.24183,-2.59402 0.4407,-0.46127 1.25174,-1.4939 1.80232,-2.29473 1.5027,-2.18571 7.0852,-5.38121 9.4009,-5.38121 2.21751,0 3.94654,1.29485 3.94654,2.95551 0,0.5768 -0.47042,1.04872 -1.04538,1.04872 -0.74671,0 -0.98506,0.52438 -0.83422,1.83528 0.18813,1.63506 0.51415,1.85734 2.98845,2.0376 2.18114,0.1589 3.07644,-0.11879 4.17107,-1.29374 1.42745,-1.53219 1.97516,-5.916 0.73914,-5.916 -0.36006,0 -0.82534,-0.68005 -1.03394,-1.51121 -0.45067,-1.79561 -4.14698,-4.49513 -6.15493,-4.49513 -0.7815,0 -1.60651,-0.30032 -1.83336,-0.66738 -0.22685,-0.36705 -1.42812,-0.66737 -2.66949,-0.66737 -1.24137,0 -2.44263,0.30032 -2.66949,0.66737 -0.22685,0.36706 -0.8749,0.66738 -1.44011,0.66738 -3.12327,0 -9.5967,4.91731 -11.42135,8.67583 -1.01986,2.10077 -2.24737,4.01894 -3.32231,5.19162 -0.45882,0.50054 -0.83421,1.20161 -0.83421,1.55794 0,0.35633 -0.3039,1.01059 -0.67534,1.45392 -0.37144,0.44332 -1.58351,1.98713 -2.6935,3.43066 -3.0757,3.99997 -5.60285,5.27397 -10.40268,5.24428 -4.11115,-0.0254 -8.67582,-1.36226 -12.75652,-3.73592 -1.19293,-0.6939 -2.16896,-1.53229 -2.16896,-1.8631 0,-0.33079 1.93434,-0.60145 4.29853,-0.60145 2.36419,0 4.48414,-0.30031 4.71099,-0.66737 0.22686,-0.36705 1.26242,-0.66737 2.30125,-0.66737 2.84984,0 4.87546,-2.04627 5.69657,-5.75463 1.21888,-5.5048 1.49278,-5.33031 -9.1657,-5.83911 -5.19817,-0.24815 -9.61461,-0.71375 -9.81432,-1.03469 -0.19971,-0.32094 -2.08995,-0.79877 -4.20051,-1.06185 -2.11056,-0.26308 -3.83739,-0.70565 -3.83739,-0.98351 0,-0.27784 -1.21438,-0.69936 -2.69863,-0.9367 -1.48426,-0.23735 -3.21108,-0.71407 -3.83739,-1.05939 -1.13304,-0.6247 -5.91639,-1.81764 -9.90261,-2.46965 -1.16693,-0.19087 -2.28974,-0.0189 -2.54204,0.3893 -0.24854,0.40215 -0.91235,0.73119 -1.47514,0.73119 -0.56279,0 -1.78684,0.60063 -2.7201,1.33474 -0.93327,0.73411 -2.21104,1.33474 -2.83948,1.33474 -1.79491,0 -3.7904,-2.12361 -4.33792,-4.61642 -0.27534,-1.25366 -0.84119,-2.71337 -1.25743,-3.2438 -1.53427,-1.95519 -4.21292,-4.5474 -7.04946,-6.82196 -1.6021,-1.28469 -3.39435,-2.80802 -3.98278,-3.38517 -0.58844,-0.57716 -2.12099,-1.76336 -3.40569,-2.636 -1.28469,-0.87265 -2.57596,-1.9771 -2.86949,-2.45433 -0.29353,-0.47724 -0.80873,-0.86771 -1.14489,-0.86771 -0.33616,0 -1.49722,-0.82587 -2.58012,-1.83527 -2.60676,-2.42981 -6.77892,-5.7778 -7.58278,-6.08487 -0.35328,-0.13494 -1.65383,-1.18606 -2.89011,-2.3358 -1.23628,-1.14974 -2.63187,-2.39412 -3.10131,-2.76529 -0.46943,-0.37116 -2.04813,-1.64751 -3.50822,-2.83633 -3.05887,-2.49057 -4.74646,-2.74018 -5.36432,-0.79344 -0.23881,0.75242 -1.5354,2.47219 -2.88131,3.82171 -2.23697,2.24297 -2.8196,2.47419 -6.78502,2.69265 -4.24217,0.23371 -4.38948,0.18536 -6.67372,-2.19035 -2.01948,-2.10033 -2.3358,-2.87103 -2.3358,-5.69092 0,-3.82061 1.67655,-5.87611 5.26819,-6.45896 3.29874,-0.53531 5.07607,0.68252 5.07607,3.47814 0,2.36646 -0.88774,3.10505 -1.57608,1.31126 -0.51949,-1.35376 -4.16841,-1.31131 -4.69255,0.0546 -1.33,3.46594 0.66375,5.61808 5.20462,5.61808 7.55207,0 9.47317,-8.08731 3.52667,-14.84635 -1.85085,-2.10374 -6.93746,-4.15626 -8.0626,-3.25336 -0.88517,0.71033 -5.07801,1.67321 -5.07801,1.16615 0,-1.2794 1.73461,-3.66946 3.58168,-4.9351 1.50876,-1.03382 3.15659,-1.48936 5.38745,-1.48936 3.05974,0 3.39909,0.19344 7.07561,4.03329 2.12396,2.2183 4.00655,3.79497 4.18354,3.5037 0.57882,-0.95253 -0.7908,-7.64217 -1.93389,-9.44576 -1.58584,-2.50216 -4.28257,-4.76495 -5.67874,-4.76495 -0.65535,0 -1.37716,-0.30032 -1.60401,-0.66737 -0.22685,-0.36705 -1.16698,-0.66737 -2.08917,-0.66737 -1.38606,0 -1.52384,-0.1515 -0.79483,-0.87392 1.6012,-1.58674 5.38855,-3.13031 7.68063,-3.13031 2.73983,0 5.4357,2.51072 7.8843,7.3428 1.4898,2.93996 1.66757,4.10535 1.66757,10.93178 v 7.641 l 2.50264,2.58886 c 1.37646,1.42387 3.55376,3.37962 4.83845,4.3461 1.28469,0.96648 3.13892,2.45445 4.12052,3.3066 0.98159,0.85216 2.75166,2.30017 3.93348,3.2178 1.18182,0.91764 2.65004,2.11891 3.26272,2.66949 0.97213,0.8736 2.91802,2.49849 9.98815,8.34045 0.88958,0.73505 2.75226,2.41362 4.13931,3.73016 3.34395,3.17398 9.18081,8.14512 10.37735,8.8382 1.95066,1.12989 15.22665,0.42333 30.91567,-1.64535 3.12172,-0.41161 7.92348,-0.54993 10.67795,-0.30758 4.92136,0.43301 12.85059,2.23413 14.54346,3.30355 0.5741,0.36267 1.91252,-0.46888 4.00423,-2.48776 5.56038,-5.36681 7.74169,-7.1319 9.29564,-7.52191 0.83657,-0.20997 1.52104,-0.64952 1.52104,-0.97678 0,-0.32727 0.54323,-0.59503 1.20719,-0.59503 0.66395,0 1.79014,-0.44092 2.50264,-0.97983 1.45952,-1.10392 14.61723,-1.47627 15.26268,-0.43192 0.20067,0.3247 1.71998,0.79358 3.37624,1.04195 1.65626,0.24837 3.01138,0.70095 3.01138,1.00572 0,0.30477 0.67572,0.72751 1.50159,0.93943 1.75068,0.44922 7.0895,5.3934 10.72995,9.93682 1.39701,1.74351 2.97038,3.17002 3.49638,3.17002 0.52601,0 0.95638,0.27646 0.95638,0.61434 0,0.33789 0.97603,0.81575 2.16896,1.06191 1.19293,0.24616 3.50797,0.88836 5.14454,1.42713 1.7769,0.58495 6.34728,1.06397 11.34533,1.18909 4.60336,0.11524 8.67005,0.29824 9.03711,0.40666 0.36705,0.10842 1.71848,-0.005 3.00317,-0.25134 1.28469,-0.24665 4.28787,-0.57714 6.67372,-0.7344 2.38586,-0.15727 5.38903,-0.72822 6.67372,-1.26878 1.28469,-0.54057 3.83739,-1.20919 5.67266,-1.48584 1.83528,-0.27665 2.94893,-0.63475 2.47479,-0.79578 -1.03907,-0.35291 0.19796,-2.16511 1.47795,-2.16511 0.43236,0 2.48136,-1.51094 4.55331,-3.35765 2.74286,-2.44466 4.41124,-4.69666 6.13576,-8.28207 2.54675,-5.29493 6.48002,-9.38951 10.9016,-11.3487 1.36742,-0.6059 3.05202,-1.41508 3.74356,-1.79818 0.93168,-0.51614 1.40004,-0.46567 1.80827,0.19487 1.37808,2.22977 9.85176,-0.92055 14.31051,-5.32031 l 2.48842,-2.4555 -0.48194,2.66949 c -0.26507,1.46822 -0.71623,2.9698 -1.00258,3.33686 -0.28634,0.36705 -0.71986,1.71848 -0.96336,3.00317 -0.46447,2.45047 -1.93139,4.51299 -4.07363,5.72762 -0.70068,0.39728 -1.53888,1.74871 -1.86266,3.00317 -0.67527,2.61628 -4.78914,7.95351 -6.13046,7.95351 -0.49542,0 -1.00087,0.22524 -1.12322,0.50053 -0.32489,0.731 -4.39655,3.5037 -5.14511,3.5037 -0.35133,0 -0.73889,0.22524 -0.86124,0.50053 -0.31886,0.71743 -14.05764,7.50349 -15.24612,7.53058 -0.5463,0.0125 -2.19453,0.6029 -3.66275,1.3121 -1.46822,0.7092 -3.13498,1.29965 -3.70392,1.3121 -0.56893,0.0124 -1.33186,0.32008 -1.69539,0.68361 -0.36353,0.36353 -2.15042,0.84256 -3.97086,1.06449 -1.82045,0.22194 -4.21085,0.80334 -5.31202,1.29201 -6.18834,2.74619 -26.5416,3.52392 -38.0402,1.45358 -6.1476,-1.10688 -7.72528,-1.59711 -13.28867,-4.12912 -3.00932,-1.3696 -3.71206,-0.72725 -3.27174,2.99063 0.52207,4.40807 -0.14437,7.35494 -2.15329,9.52147 -1.6383,1.76683 -1.92804,1.82816 -8.63772,1.82816 -6.25851,0 -7.03764,0.13576 -7.90768,1.37791 -2.00695,2.86532 0.53437,5.56132 4.52343,4.79876 1.80892,-0.34579 1.87526,-0.27223 1.41356,1.56733 -0.57752,2.30103 -0.16495,1.90052 -3.29377,3.1975 -2.89174,1.1987 -3.87017,1.23369 -6.75907,0.24175 z"
           id="path9"
           transform="matrix(9524.9889,0,0,9524.9889,-1023732.6,-2302100.7)" />
      </g>
    </g>
  </g>
</svg>
